<svg width="146" height="146" viewBox="0 0 146 146" fill="none" xmlns="http://www.w3.org/2000/svg">
<circle cx="73" cy="73" r="73" fill="url(#paint0_linear_119_7)"/>
<path d="M67.1135 88.8565C66.357 88.8565 65.8369 88.7609 65.5532 88.5696C65.3641 88.3783 65.2695 87.7565 65.2695 86.7043L63 24.8652C63 24.1957 63.0946 23.7174 63.2837 23.4304C63.4728 23.1435 63.8983 23 64.5603 23H81.4397C82.4799 23 83 23.5739 83 24.7217L80.5887 86.7043C80.5887 87.6609 80.4941 88.2826 80.305 88.5696C80.1158 88.7609 79.5012 88.8565 78.461 88.8565H67.1135ZM81.5816 114.252C81.5816 116.739 80.9669 118.652 79.7376 119.991C78.6028 121.33 76.1442 122 72.3617 122C69.052 122 66.6407 121.33 65.1277 119.991C63.7092 118.652 63 116.739 63 114.252C63 111.765 63.7092 109.9 65.1277 108.657C66.6407 107.413 69.052 106.791 72.3617 106.791C76.1442 106.791 78.6028 107.413 79.7376 108.657C80.9669 109.9 81.5816 111.765 81.5816 114.252Z" fill="white"/>
<defs>
<linearGradient id="paint0_linear_119_7" x1="107.5" y1="12" x2="35" y2="132" gradientUnits="userSpaceOnUse">
<stop stop-color="#F93131"/>
<stop offset="1" stop-color="#833636"/>
</linearGradient>
</defs>
</svg>
