<svg width="16" height="29" viewBox="0 0 16 29" fill="none" xmlns="http://www.w3.org/2000/svg">
<path d="M0.183105 7.96068C0.183105 5.9898 1.78082 4.39209 3.7517 4.39209H11.5294C13.5003 4.39209 15.098 5.9898 15.098 7.96069V23.7906C15.098 25.7615 13.5003 27.3592 11.5294 27.3592H3.7517C1.78082 27.3592 0.183105 25.7615 0.183105 23.7906V7.96068Z" fill="#F47171"/>
<path fill-rule="evenodd" clip-rule="evenodd" d="M3.7517 4.39209C1.78082 4.39209 0.183105 5.9898 0.183105 7.96068V23.7906C0.183105 25.7615 1.78082 27.3592 3.7517 27.3592H5.85626C3.88538 27.3592 2.28766 25.7615 2.28766 23.7906V7.96068C2.28766 5.9898 3.88538 4.39209 5.85626 4.39209H3.7517Z" fill="white" fill-opacity="0.34"/>
<path fill-rule="evenodd" clip-rule="evenodd" d="M11.5293 4.39209C13.5002 4.39209 15.0979 5.9898 15.0979 7.96068V23.7906C15.0979 25.7615 13.5002 27.3592 11.5293 27.3592H9.42475C11.3956 27.3592 12.9933 25.7615 12.9933 23.7906V7.96068C12.9933 5.9898 11.3956 4.39209 9.42475 4.39209H11.5293Z" fill="black" fill-opacity="0.1"/>
<path d="M5.03271 3.15683C5.03271 1.71657 6.20028 0.549011 7.64053 0.549011C9.08079 0.549011 10.2484 1.71657 10.2484 3.15683V4.39211H5.03271V3.15683Z" fill="#D7D7D7"/>
<path d="M0 16.1501C0 16.0238 0.102418 15.9214 0.228756 15.9214H15.0522C15.1785 15.9214 15.2809 16.0238 15.2809 16.1501C15.2809 16.2765 15.1785 16.3789 15.0522 16.3789H0.228756C0.102418 16.3789 0 16.2765 0 16.1501Z" fill="black" fill-opacity="0.1"/>
<path d="M0 7.91497C0 7.78864 0.102418 7.68622 0.228756 7.68622H15.0522C15.1785 7.68622 15.2809 7.78864 15.2809 7.91497C15.2809 8.04131 15.1785 8.14373 15.0522 8.14373H0.228756C0.102418 8.14373 0 8.04131 0 7.91497Z" fill="black" fill-opacity="0.1"/>
<path d="M10.2124 2.72833L10.8452 2.74065C10.971 2.7431 11.0717 2.84577 11.0717 2.97159C11.0717 3.09916 10.9683 3.20257 10.8407 3.20257H10.2482L10.2124 2.72833Z" fill="#E1E1E1"/>
<path d="M11.1174 3.47711C10.9911 3.47711 10.8887 3.37469 10.8887 3.24836L10.8887 2.60784C10.8887 2.4815 10.9911 2.37908 11.1174 2.37908C11.2438 2.37908 11.3462 2.4815 11.3462 2.60784L11.3462 3.24836C11.3462 3.37469 11.2438 3.47711 11.1174 3.47711Z" fill="#E1E1E1"/>
<path d="M4.30054 0.228756C4.30054 0.102418 4.40295 0 4.52929 0H10.7515C10.8778 0 10.9802 0.102418 10.9802 0.228756C10.9802 0.355095 10.8778 0.457512 10.7515 0.457512H4.52929C4.40295 0.457512 4.30054 0.355095 4.30054 0.228756Z" fill="#D7D7D7"/>
<rect x="4.30054" width="2.01305" height="0.457512" rx="0.228756" fill="white" fill-opacity="0.3"/>
<path d="M8.96729 0.228756C8.96729 0.102418 9.0697 0 9.19604 0H10.7516C10.8779 0 10.9803 0.102418 10.9803 0.228756C10.9803 0.355095 10.8779 0.457512 10.7516 0.457512H9.19604C9.0697 0.457512 8.96729 0.355095 8.96729 0.228756Z" fill="black" fill-opacity="0.12"/>
<rect x="6.49658" y="0.45752" width="2.28756" height="0.457512" fill="#D7D7D7"/>
<path d="M0 24.3854C0 24.259 0.102418 24.1566 0.228756 24.1566H15.0522C15.1785 24.1566 15.2809 24.259 15.2809 24.3854C15.2809 24.5117 15.1785 24.6141 15.0522 24.6141H0.228756C0.102418 24.6141 0 24.5117 0 24.3854Z" fill="black" fill-opacity="0.1"/>
<path fill-rule="evenodd" clip-rule="evenodd" d="M7.59471 27.3593H10.0653L10.9803 28.0913H7.59482V28.0913H4.20923L5.12425 27.3593H7.59471V27.3593Z" fill="#868686"/>
<path fill-rule="evenodd" clip-rule="evenodd" d="M7.64053 0.549011C6.20028 0.549011 5.03271 1.71657 5.03271 3.15683V4.39211H6.40525V3.15683C6.40525 1.95408 7.21948 0.941507 8.3268 0.640252C8.10814 0.580763 7.87804 0.549011 7.64053 0.549011Z" fill="white" fill-opacity="0.38"/>
<path fill-rule="evenodd" clip-rule="evenodd" d="M7.64047 0.549011C9.08073 0.549011 10.2483 1.71657 10.2483 3.15683V4.39211H8.87575V3.15683C8.87575 1.95408 8.06152 0.941507 6.9542 0.640252C7.17287 0.580763 7.40296 0.549011 7.64047 0.549011Z" fill="black" fill-opacity="0.1"/>
</svg>
