<svg width="234" height="234" viewBox="0 0 234 234" fill="none" xmlns="http://www.w3.org/2000/svg">
<path d="M117.007 213.668C170.408 213.668 213.698 170.378 213.698 116.977C213.698 63.5762 170.408 20.2863 117.007 20.2863C63.6066 20.2863 20.3167 63.5762 20.3167 116.977C20.3167 170.378 63.6066 213.668 117.007 213.668Z" fill="#121F4E"/>
<path d="M192.122 56.0972C192.122 56.0972 186.02 25.4245 142.1 7.81217C98.1805 -9.80015 59.6428 22.7468 59.6428 22.7468C59.6428 22.7468 78.8899 11.9796 105.648 26.292C132.406 40.6043 192.122 56.0972 192.122 56.0972Z" fill="#121F4E"/>
<path d="M56.1276 41.8625C56.1276 41.8625 25.4549 47.9646 7.84257 91.8843C-9.76975 135.804 22.7772 174.342 22.7772 174.342C22.7772 174.342 12.01 155.095 26.3223 128.337C40.6347 101.579 56.1276 41.8625 56.1276 41.8625Z" fill="#121F4E"/>
<path d="M41.8929 177.856C41.8929 177.856 47.995 208.529 91.9147 226.141C135.834 243.754 174.372 211.207 174.372 211.207C174.372 211.207 155.125 221.974 128.367 207.662C101.609 193.349 41.8929 177.856 41.8929 177.856Z" fill="#121F4E"/>
<path d="M177.887 192.092C177.887 192.092 208.559 185.99 226.172 142.07C243.784 98.1501 211.237 59.6124 211.237 59.6124C211.237 59.6124 222.004 78.8595 207.692 105.617C193.38 132.375 177.887 192.092 177.887 192.092Z" fill="#121F4E"/>
<path d="M117.007 201.762C163.833 201.762 201.793 163.803 201.793 116.977C201.793 70.1513 163.833 32.1917 117.007 32.1917C70.1818 32.1917 32.2221 70.1513 32.2221 116.977C32.2221 163.803 70.1818 201.762 117.007 201.762Z" fill="#F2BF3D"/>
<path d="M117.007 166.592C144.409 166.592 166.622 144.378 166.622 116.977C166.622 89.5755 144.409 67.3622 117.007 67.3622C89.6059 67.3622 67.3926 89.5755 67.3926 116.977C67.3926 144.378 89.6059 166.592 117.007 166.592Z" fill="#FCD275"/>
<path d="M129.029 103.93C128.42 103.93 127.805 103.751 127.266 103.38C112.037 92.88 92.2383 91.3641 75.5961 99.4257C74.0504 100.174 72.1891 99.529 71.4393 97.982C70.6901 96.4357 71.3366 94.5744 72.883 93.8252C91.5364 84.7898 113.729 86.488 130.798 98.2565C132.212 99.2316 132.569 101.169 131.593 102.584C130.991 103.46 130.018 103.93 129.029 103.93Z" fill="#F0F0F0"/>
<path d="M73.4213 220.228C72.8407 220.228 72.2539 220.065 71.7305 219.726C64.2308 214.859 57.509 208.869 51.7523 201.921C39.5812 187.232 33.8587 168.682 35.6391 149.689C37.42 130.696 46.4903 113.533 61.1798 101.362C62.5028 100.265 64.4648 100.449 65.5607 101.772C66.6571 103.095 66.4729 105.057 65.1499 106.153C51.7405 117.264 43.4605 132.932 41.8351 150.27C40.2097 167.609 45.4331 184.542 56.5438 197.952C61.8979 204.413 68.1475 209.983 75.1176 214.507C76.5588 215.442 76.9695 217.369 76.0342 218.81C75.4381 219.728 74.4399 220.228 73.4213 220.228Z" fill="#F0F0F0"/>
<path d="M119.969 234C108.705 234 97.3989 231.839 86.6322 227.484C85.0392 226.839 84.27 225.025 84.9147 223.433C85.5594 221.839 87.3727 221.07 88.9658 221.715C111.858 230.976 137.388 229.571 159.007 217.859C160.52 217.04 162.408 217.603 163.225 219.113C164.044 220.624 163.482 222.512 161.971 223.331C148.884 230.42 134.463 234 119.969 234Z" fill="#F0F0F0"/>
<path d="M167.599 219.396C166.6 219.396 165.618 218.916 165.018 218.026C164.056 216.601 164.431 214.668 165.855 213.706C168.098 212.192 170.295 210.545 172.387 208.811C173.709 207.715 175.672 207.898 176.768 209.222C177.865 210.545 177.681 212.506 176.358 213.603C174.109 215.466 171.748 217.236 169.338 218.863C168.803 219.223 168.198 219.396 167.599 219.396Z" fill="#F0F0F0"/>
<path d="M136.015 145.877C124.694 145.877 113.498 142.562 103.948 136.193C102.519 135.24 102.133 133.307 103.086 131.878C104.04 130.449 105.972 130.063 107.401 131.016C119.452 139.054 134.446 141.642 148.539 138.113C150.202 137.696 151.896 138.708 152.313 140.375C152.73 142.042 151.717 143.732 150.05 144.149C145.423 145.308 140.708 145.877 136.015 145.877Z" fill="#F0F0F0"/>
<path d="M160.907 139.877C159.778 139.877 158.688 139.26 158.136 138.186C157.352 136.657 157.955 134.782 159.483 133.998C162.803 132.293 165.96 130.208 168.865 127.802C170.189 126.705 172.149 126.89 173.246 128.212C174.342 129.535 174.158 131.497 172.834 132.593C169.582 135.288 166.047 137.622 162.325 139.533C161.871 139.766 161.385 139.877 160.907 139.877Z" fill="#F0F0F0"/>
<path d="M180.807 123.15C180.129 123.15 179.446 122.93 178.874 122.475C177.528 121.406 177.304 119.449 178.373 118.103C187.53 106.574 192.535 92.0666 192.465 77.2521C192.394 62.2365 187.069 47.5869 177.47 36.0019C170.382 27.4481 161.833 20.5396 152.062 15.468C150.536 14.6765 149.941 12.7985 150.733 11.2732C151.524 9.74743 153.405 9.15377 154.927 9.94469C165.442 15.4021 174.64 22.8333 182.261 32.0318C192.776 44.7225 198.61 60.7717 198.687 77.2228C198.763 93.4481 193.279 109.341 183.245 121.974C182.631 122.747 181.724 123.15 180.807 123.15Z" fill="#F0F0F0"/>
<path d="M59.6447 25.8582C58.7498 25.8582 57.8625 25.4742 57.247 24.7318C56.1506 23.4089 56.3348 21.4475 57.6577 20.351C69.575 10.4761 83.8923 3.87995 99.0597 1.2751C113.769 -1.25135 129.004 -0.00803846 143.117 4.87124C144.741 5.43253 145.602 7.20478 145.041 8.8283C144.48 10.4524 142.709 11.3137 141.084 10.7524C127.96 6.21474 113.793 5.05917 100.113 7.40764C86.0168 9.82892 72.7088 15.9608 61.6279 25.1426C61.0473 25.6236 60.3435 25.8582 59.6447 25.8582Z" fill="#F0F0F0"/>
<path d="M136.65 126.312C136.167 126.312 135.678 126.199 135.22 125.961C133.694 125.17 133.1 123.292 133.891 121.767C143.454 103.34 141.075 81.1039 127.831 65.1195C114.676 49.2433 95.2975 40.6646 74.6777 41.5831C72.9745 41.6559 71.5078 40.3298 71.4312 38.6129C71.3547 36.8967 72.6845 35.4431 74.4014 35.3665C96.9913 34.3609 118.213 43.7585 132.624 61.15C147.467 79.0641 150.133 103.983 139.414 124.634C138.861 125.7 137.775 126.312 136.65 126.312Z" fill="#F0F0F0"/>
<path d="M58.939 44.1089C57.5825 44.1089 56.3354 43.2153 55.9471 41.8457C55.4779 40.1923 56.4381 38.4723 58.0909 38.0031C59.7772 37.5246 61.5003 37.1039 63.2135 36.7529C64.8942 36.4076 66.5408 37.4922 66.8861 39.1761C67.2315 40.8594 66.1469 42.504 64.463 42.8488C62.9005 43.1693 61.328 43.5532 59.7891 43.9894C59.5059 44.0703 59.2197 44.1089 58.939 44.1089Z" fill="#F0F0F0"/>
<path d="M7.11943 148.816C5.79958 148.816 4.57494 147.969 4.15428 146.644C-1.10957 130.041 -1.36283 112.379 3.42186 95.5664C8.32229 78.3479 18.2258 63.1868 32.0628 51.7219C36.8158 47.7835 42.0392 44.4805 47.588 41.9043C49.1462 41.1799 50.9968 41.8576 51.7205 43.4164C52.4443 44.9752 51.7672 46.8252 50.2084 47.5489C45.1443 49.8999 40.3752 52.9167 36.0329 56.5141C23.1686 67.1731 13.962 81.2664 9.40692 97.2702C4.95764 112.905 5.19224 129.328 10.0858 144.764C10.6048 146.401 9.69815 148.151 8.06031 148.67C7.74793 148.769 7.43119 148.816 7.11943 148.816Z" fill="#F0F0F0"/>
<path d="M22.7791 177.453C21.8842 177.453 20.9969 177.069 20.3814 176.327C15.2364 170.117 10.9732 163.271 7.70999 155.979C7.00806 154.41 7.71061 152.569 9.27875 151.868C10.8494 151.166 12.6882 151.869 13.3895 153.437C16.4231 160.215 20.3876 166.581 25.173 172.357C26.2694 173.68 26.0852 175.641 24.7623 176.737C24.1817 177.219 23.4779 177.453 22.7791 177.453Z" fill="#F0F0F0"/>
<path d="M95.1923 159.557C93.962 159.557 92.7971 158.822 92.3074 157.612C85.0093 139.577 87.2346 119.246 98.2595 103.226C99.2333 101.81 101.17 101.452 102.587 102.426C104.002 103.401 104.36 105.338 103.386 106.754C93.5501 121.047 91.565 139.187 98.0759 155.278C98.7206 156.871 97.9521 158.685 96.359 159.329C95.9763 159.484 95.5806 159.557 95.1923 159.557Z" fill="#F0F0F0"/>
<path d="M156.446 198.625C135.896 198.627 115.497 189.828 101.391 172.804C100.295 171.481 100.479 169.52 101.802 168.423C103.125 167.327 105.087 167.511 106.183 168.834C129.118 196.515 170.299 200.376 197.981 177.44C217.646 161.147 228.488 137.144 227.728 111.584C227.677 109.867 229.028 108.433 230.746 108.382C232.453 108.326 233.897 109.681 233.948 111.4C234.765 138.889 223.103 164.706 201.952 182.232C188.652 193.251 172.502 198.625 156.446 198.625Z" fill="#F0F0F0"/>
<path d="M229.317 100.9C227.856 100.9 226.554 99.8663 226.266 98.3791C223.663 84.9329 217.638 72.2135 208.842 61.5969C207.745 60.2739 207.93 58.3125 209.253 57.216C210.577 56.1196 212.537 56.3044 213.634 57.6267C223.094 69.0449 229.575 82.7282 232.375 97.1961C232.701 98.8831 231.599 100.515 229.912 100.842C229.711 100.881 229.513 100.9 229.317 100.9Z" fill="#F0F0F0"/>
<path d="M117.007 127.558C122.851 127.558 127.588 122.821 127.588 116.977C127.588 111.134 122.851 106.396 117.007 106.396C111.164 106.396 106.427 111.134 106.427 116.977C106.427 122.821 111.164 127.558 117.007 127.558Z" fill="#7E65E5"/>
<path d="M117.007 130.669C109.458 130.669 103.315 124.526 103.315 116.977C103.315 109.428 109.458 103.285 117.007 103.285C124.557 103.285 130.699 109.428 130.699 116.977C130.699 124.526 124.557 130.669 117.007 130.669ZM117.007 109.508C112.889 109.508 109.538 112.858 109.538 116.977C109.538 121.096 112.889 124.446 117.007 124.446C121.126 124.446 124.477 121.095 124.477 116.977C124.477 112.859 121.126 109.508 117.007 109.508Z" fill="#F0F0F0"/>
<path d="M167.252 163.815C167.047 163.815 166.848 163.797 166.642 163.753C166.443 163.716 166.25 163.653 166.063 163.579C165.877 163.498 165.696 163.405 165.528 163.293C165.354 163.18 165.199 163.05 165.049 162.907C164.906 162.764 164.781 162.602 164.663 162.434C164.551 162.26 164.458 162.079 164.377 161.892C164.302 161.706 164.24 161.513 164.203 161.314C164.159 161.115 164.141 160.909 164.141 160.704C164.141 160.498 164.159 160.299 164.203 160.094C164.24 159.895 164.302 159.702 164.377 159.515C164.458 159.329 164.551 159.148 164.663 158.974C164.781 158.806 164.906 158.644 165.049 158.501C165.198 158.358 165.353 158.227 165.528 158.115C165.697 158.003 165.877 157.91 166.063 157.829C166.25 157.754 166.442 157.692 166.642 157.655C167.047 157.574 167.457 157.574 167.862 157.655C168.061 157.692 168.254 157.754 168.441 157.829C168.628 157.91 168.815 158.003 168.982 158.115C169.151 158.227 169.312 158.358 169.456 158.501C169.598 158.644 169.729 158.806 169.841 158.974C169.953 159.148 170.046 159.329 170.127 159.515C170.202 159.702 170.264 159.895 170.301 160.094C170.345 160.299 170.364 160.498 170.364 160.704C170.364 160.909 170.345 161.115 170.301 161.314C170.264 161.513 170.202 161.706 170.127 161.892C170.046 162.079 169.953 162.26 169.841 162.434C169.729 162.602 169.598 162.764 169.456 162.907C169.312 163.05 169.151 163.18 168.982 163.293C168.814 163.405 168.628 163.498 168.441 163.579C168.254 163.653 168.062 163.716 167.862 163.753C167.662 163.796 167.457 163.815 167.252 163.815Z" fill="#A4FFFA"/>
<path d="M212.678 128.968C211.862 128.968 211.06 128.638 210.482 128.059C209.897 127.474 209.567 126.678 209.567 125.856C209.567 125.651 209.585 125.452 209.629 125.246C209.666 125.047 209.729 124.854 209.803 124.668C209.884 124.481 209.977 124.301 210.09 124.126C210.207 123.958 210.338 123.797 210.482 123.653C211.203 122.932 212.28 122.602 213.288 122.807C213.487 122.844 213.68 122.907 213.867 122.981C214.054 123.062 214.235 123.156 214.408 123.268C214.577 123.38 214.738 123.51 214.882 123.653C215.024 123.797 215.155 123.958 215.267 124.126C215.38 124.301 215.472 124.481 215.553 124.668C215.628 124.854 215.691 125.047 215.727 125.246C215.771 125.452 215.79 125.651 215.79 125.856C215.79 126.671 215.46 127.474 214.882 128.059C214.739 128.202 214.577 128.333 214.408 128.445C214.235 128.557 214.054 128.65 213.867 128.731C213.68 128.806 213.488 128.868 213.288 128.905C213.088 128.948 212.883 128.968 212.678 128.968Z" fill="#A4FFFA"/>
<path d="M47.1525 60.5171C46.3373 60.5171 45.5345 60.1873 44.9558 59.6086C44.8127 59.4655 44.682 59.3037 44.5638 59.1357C44.4518 58.9614 44.3584 58.781 44.2838 58.5943C44.2029 58.4076 44.1406 58.2147 44.1033 58.0156C44.066 57.8102 44.0411 57.6111 44.0411 57.4057C44.0411 57.2004 44.066 57.0013 44.1033 56.7959C44.1406 56.5968 44.2029 56.4039 44.2838 56.2172C44.3584 56.0305 44.4518 55.85 44.5638 55.6758C44.682 55.5078 44.8127 55.346 44.9558 55.2029C45.0989 55.0597 45.2545 54.9291 45.4288 54.8171C45.5968 54.705 45.7772 54.6117 45.9639 54.5308C46.1506 54.4561 46.3497 54.3939 46.5489 54.3566C46.9471 54.2757 47.3578 54.2757 47.7623 54.3566C47.9614 54.3939 48.1543 54.4561 48.341 54.5308C48.5339 54.6117 48.7144 54.705 48.8824 54.8171C49.0504 54.9291 49.2122 55.0597 49.3553 55.2029C49.934 55.7816 50.2639 56.5843 50.2639 57.4057C50.2639 58.2271 49.934 59.0237 49.3553 59.6086C48.7766 60.1867 47.9739 60.5171 47.1525 60.5171Z" fill="#A4FFFA"/>
<path d="M154.806 117.767C154.601 117.767 154.402 117.748 154.197 117.704C153.997 117.667 153.805 117.605 153.618 117.53C153.431 117.449 153.251 117.356 153.083 117.244C152.909 117.132 152.753 117.001 152.604 116.858C152.024 116.279 151.695 115.477 151.695 114.655C151.695 113.834 152.024 113.031 152.604 112.452C152.752 112.309 152.908 112.179 153.083 112.067C153.251 111.955 153.432 111.861 153.618 111.78C153.805 111.706 153.997 111.643 154.197 111.606C154.601 111.525 155.012 111.525 155.416 111.606C155.615 111.643 155.808 111.706 155.995 111.78C156.189 111.861 156.369 111.955 156.536 112.067C156.705 112.179 156.866 112.309 157.01 112.452C157.589 113.031 157.918 113.834 157.918 114.655C157.918 115.477 157.589 116.279 157.01 116.858C156.867 117.001 156.705 117.132 156.536 117.244C156.368 117.356 156.188 117.449 155.995 117.53C155.808 117.605 155.616 117.667 155.416 117.704C155.217 117.747 155.011 117.767 154.806 117.767Z" fill="#A4FFFA"/>
<path d="M150.451 97.2315C150.245 97.2315 150.046 97.2128 149.841 97.1692C149.642 97.1319 149.449 97.0697 149.262 96.995C149.075 96.9141 148.895 96.8208 148.727 96.7088C148.553 96.5967 148.397 96.4661 148.254 96.3229C148.111 96.1798 147.98 96.018 147.862 95.85C147.749 95.6758 147.657 95.4953 147.576 95.3086C147.501 95.122 147.438 94.929 147.401 94.7299C147.358 94.5246 147.339 94.3254 147.339 94.1201C147.339 93.9147 147.357 93.7156 147.401 93.5103C147.439 93.3111 147.501 93.1182 147.576 92.9315C147.657 92.7449 147.749 92.5644 147.862 92.3902C147.979 92.2221 148.11 92.0666 148.254 91.9172C148.396 91.7741 148.552 91.6496 148.727 91.5314C148.895 91.4194 149.076 91.3261 149.262 91.2452C149.449 91.1705 149.641 91.1083 149.841 91.0709C150.245 90.99 150.656 90.99 151.06 91.0709C151.26 91.1083 151.452 91.1705 151.639 91.2452C151.833 91.3261 152.013 91.4194 152.18 91.5314C152.349 91.6496 152.51 91.7741 152.654 91.9172C153.233 92.5022 153.563 93.2987 153.563 94.1201C153.563 94.9415 153.233 95.738 152.654 96.3229C152.511 96.4661 152.349 96.5967 152.18 96.7088C152.012 96.8208 151.832 96.9141 151.639 96.995C151.452 97.0697 151.26 97.1319 151.06 97.1692C150.861 97.2122 150.655 97.2315 150.451 97.2315Z" fill="#A4FFFA"/>
<path d="M128.049 90.3865C127.849 90.3865 127.644 90.3678 127.439 90.3242C127.24 90.2869 127.047 90.2247 126.86 90.15C126.673 90.0691 126.493 89.9758 126.319 89.8638C126.15 89.7517 125.994 89.6211 125.846 89.4779C125.266 88.8992 124.937 88.0965 124.937 87.2751C124.937 86.4537 125.266 85.6509 125.846 85.0722C125.994 84.9291 126.15 84.8046 126.319 84.6864C126.493 84.5744 126.673 84.4811 126.86 84.4002C127.047 84.3255 127.239 84.2633 127.439 84.2259C128.453 84.0206 129.53 84.3504 130.252 85.0722C130.395 85.2153 130.525 85.3771 130.637 85.5451C130.75 85.7194 130.843 85.8999 130.923 86.0865C130.998 86.2732 131.061 86.4661 131.098 86.6652C131.141 86.8706 131.161 87.0697 131.161 87.2751C131.161 88.0965 130.831 88.8992 130.252 89.4779C129.673 90.056 128.87 90.3865 128.049 90.3865Z" fill="#A4FFFA"/>
<path d="M83.8668 130.835C83.0516 130.835 82.2489 130.505 81.6702 129.926C81.5271 129.783 81.3964 129.621 81.2781 129.453C81.1661 129.279 81.0728 129.098 80.9981 128.912C80.9172 128.725 80.855 128.532 80.8177 128.333C80.7741 128.128 80.7554 127.928 80.7554 127.723C80.7554 126.902 81.0915 126.099 81.6702 125.52C81.8133 125.377 81.9689 125.246 82.1431 125.134C82.3111 125.022 82.4916 124.929 82.6783 124.848C82.865 124.774 83.0641 124.711 83.257 124.674C83.6615 124.593 84.0722 124.593 84.4766 124.674C84.6758 124.711 84.8687 124.774 85.0554 124.848C85.2483 124.929 85.4287 125.022 85.5968 125.134C85.7648 125.246 85.9266 125.377 86.0697 125.52C86.6484 126.099 86.9782 126.902 86.9782 127.723C86.9782 127.928 86.9595 128.128 86.916 128.333C86.8786 128.532 86.8164 128.725 86.7417 128.912C86.6608 129.098 86.5675 129.279 86.4555 129.453C86.3435 129.621 86.2128 129.783 86.0697 129.926C85.4847 130.504 84.6882 130.835 83.8668 130.835Z" fill="#A4FFFA"/>
<path d="M101.085 148.464C100.88 148.464 100.675 148.445 100.475 148.408C100.276 148.364 100.083 148.308 99.8967 148.227C99.7038 148.152 99.5233 148.053 99.3553 147.941C99.1873 147.829 99.0255 147.698 98.8824 147.555C98.7393 147.412 98.6086 147.25 98.4966 147.082C98.3846 146.914 98.2912 146.734 98.2103 146.547C98.1357 146.354 98.0734 146.161 98.0361 145.962C97.9925 145.763 97.9739 145.558 97.9739 145.352C97.9739 144.537 98.3037 143.734 98.8824 143.156C99.0255 143.012 99.1873 142.882 99.3553 142.77C99.5233 142.658 99.7038 142.558 99.8967 142.484C100.083 142.403 100.276 142.347 100.475 142.303C101.484 142.098 102.56 142.434 103.282 143.156C103.425 143.299 103.556 143.454 103.668 143.629C103.786 143.797 103.879 143.977 103.954 144.164C104.035 144.35 104.097 144.549 104.134 144.749C104.178 144.948 104.197 145.153 104.197 145.352C104.197 145.558 104.178 145.763 104.134 145.962C104.097 146.161 104.035 146.354 103.954 146.547C103.879 146.734 103.786 146.914 103.668 147.082C103.556 147.25 103.425 147.412 103.282 147.555C102.703 148.133 101.9 148.464 101.085 148.464Z" fill="#A4FFFA"/>
<path d="M77.644 109.677C76.8289 109.677 76.0261 109.347 75.4474 108.768C75.3043 108.625 75.1736 108.464 75.0554 108.296C74.9434 108.121 74.85 107.941 74.7691 107.754C74.6944 107.567 74.6322 107.375 74.5949 107.175C74.5513 106.97 74.5327 106.771 74.5327 106.566C74.5327 106.36 74.5513 106.161 74.5949 105.956C74.6322 105.757 74.6944 105.564 74.7691 105.377C74.85 105.19 74.9434 105.004 75.0554 104.836C75.1736 104.668 75.3043 104.506 75.4474 104.363C76.1692 103.641 77.2458 103.311 78.2539 103.516C78.453 103.554 78.6459 103.616 78.8326 103.691C79.0255 103.772 79.206 103.865 79.374 103.977C79.542 104.089 79.7038 104.22 79.8469 104.363C80.4256 104.941 80.7554 105.744 80.7554 106.566C80.7554 106.771 80.7368 106.97 80.6932 107.175C80.6559 107.375 80.5936 107.567 80.519 107.754C80.4381 107.941 80.3447 108.121 80.2327 108.296C80.1207 108.464 79.99 108.625 79.8469 108.768C79.2682 109.347 78.4654 109.677 77.644 109.677Z" fill="#A4FFFA"/>
<path d="M119.959 151.992C119.76 151.992 119.554 151.973 119.349 151.93C119.156 151.892 118.957 151.83 118.77 151.755C118.584 151.675 118.403 151.581 118.235 151.469C118.061 151.357 117.905 151.227 117.762 151.083C117.619 150.94 117.488 150.779 117.37 150.61C117.258 150.436 117.165 150.256 117.084 150.069C117.009 149.882 116.947 149.69 116.91 149.49C116.866 149.285 116.848 149.086 116.848 148.881C116.848 148.675 116.866 148.47 116.91 148.271C116.947 148.072 117.009 147.879 117.084 147.692C117.165 147.505 117.258 147.325 117.37 147.151C117.488 146.983 117.619 146.827 117.762 146.678C117.905 146.535 118.06 146.404 118.235 146.292C118.404 146.18 118.584 146.087 118.77 146.006C118.957 145.931 119.149 145.869 119.349 145.831C120.363 145.626 121.44 145.956 122.162 146.678C122.305 146.827 122.436 146.983 122.548 147.151C122.66 147.325 122.753 147.505 122.834 147.692C122.909 147.879 122.971 148.072 123.008 148.271C123.052 148.47 123.071 148.675 123.071 148.881C123.071 149.086 123.052 149.285 123.008 149.49C122.971 149.69 122.909 149.882 122.834 150.069C122.753 150.256 122.66 150.436 122.548 150.61C122.436 150.779 122.305 150.94 122.162 151.083C121.583 151.662 120.78 151.992 119.959 151.992Z" fill="#A4FFFA"/>
<path d="M112.286 160.082C112.081 160.082 111.876 160.063 111.676 160.019C111.477 159.982 111.284 159.92 111.098 159.845C110.905 159.764 110.724 159.671 110.556 159.559C110.388 159.447 110.227 159.316 110.083 159.173C109.505 158.594 109.175 157.792 109.175 156.97C109.175 156.149 109.505 155.346 110.083 154.767C110.227 154.624 110.388 154.493 110.556 154.381C110.724 154.269 110.905 154.176 111.098 154.095C111.284 154.021 111.477 153.958 111.676 153.921C112.691 153.716 113.761 154.045 114.483 154.767C114.626 154.91 114.757 155.072 114.875 155.24C114.987 155.414 115.08 155.595 115.155 155.782C115.236 155.968 115.298 156.161 115.335 156.36C115.379 156.566 115.398 156.765 115.398 156.97C115.398 157.792 115.062 158.594 114.483 159.173C113.904 159.751 113.101 160.082 112.286 160.082Z" fill="#A4FFFA"/>
<path d="M138.005 156.348C137.189 156.348 136.386 156.018 135.808 155.439C135.665 155.296 135.535 155.134 135.416 154.966C135.304 154.792 135.211 154.612 135.13 154.425C135.055 154.238 134.993 154.045 134.956 153.846C134.912 153.641 134.894 153.442 134.894 153.236C134.894 152.415 135.223 151.612 135.808 151.034C135.951 150.89 136.106 150.766 136.281 150.648C136.45 150.536 136.63 150.442 136.816 150.361C137.003 150.287 137.195 150.225 137.395 150.187C137.8 150.106 138.21 150.106 138.615 150.187C138.814 150.225 139.007 150.287 139.194 150.361C139.387 150.442 139.568 150.536 139.735 150.648C139.904 150.766 140.065 150.89 140.208 151.034C140.351 151.177 140.482 151.338 140.594 151.506C140.706 151.681 140.799 151.861 140.88 152.048C140.955 152.235 141.017 152.427 141.054 152.627C141.098 152.832 141.117 153.031 141.117 153.236C141.117 153.442 141.098 153.641 141.054 153.846C141.017 154.045 140.955 154.238 140.88 154.425C140.799 154.612 140.706 154.792 140.594 154.966C140.482 155.134 140.351 155.296 140.208 155.439C140.065 155.582 139.904 155.713 139.735 155.825C139.567 155.937 139.386 156.03 139.194 156.111C139.007 156.186 138.815 156.248 138.615 156.286C138.415 156.329 138.21 156.348 138.005 156.348Z" fill="#A4FFFA"/>
<path d="M109.38 80.4301C109.181 80.4301 108.976 80.4114 108.77 80.3678C108.577 80.3305 108.378 80.2683 108.192 80.1936C108.005 80.1127 107.824 80.0193 107.656 79.9073C107.482 79.7953 107.327 79.6646 107.184 79.5215C107.04 79.3784 106.91 79.2166 106.792 79.0486C106.679 78.8806 106.586 78.6939 106.511 78.5072C106.431 78.3205 106.368 78.1276 106.331 77.9285C106.294 77.7294 106.269 77.524 106.269 77.3187C106.269 77.1133 106.294 76.9142 106.331 76.7088C106.368 76.5097 106.431 76.3168 106.511 76.1301C106.586 75.9434 106.679 75.763 106.792 75.595C106.91 75.4207 107.04 75.2651 107.184 75.1158C107.327 74.9727 107.482 74.8482 107.656 74.73C107.824 74.618 108.005 74.5246 108.192 74.4437C108.378 74.3691 108.577 74.3068 108.77 74.2695C109.785 74.0641 110.855 74.394 111.583 75.1158C111.726 75.2651 111.857 75.4207 111.969 75.595C112.081 75.763 112.174 75.9434 112.255 76.1301C112.33 76.3168 112.392 76.5097 112.429 76.7088C112.473 76.9142 112.492 77.1133 112.492 77.3187C112.492 77.524 112.473 77.7294 112.429 77.9285C112.392 78.1276 112.33 78.3205 112.255 78.5072C112.174 78.6939 112.081 78.8806 111.969 79.0486C111.857 79.2166 111.726 79.3784 111.583 79.5215C111.004 80.0996 110.202 80.4301 109.38 80.4301Z" fill="#A4FFFA"/>
<path d="M139.872 133.946C139.666 133.946 139.467 133.927 139.262 133.884C139.063 133.846 138.87 133.784 138.683 133.709C138.497 133.628 138.316 133.535 138.148 133.423C137.974 133.311 137.818 133.18 137.669 133.037C137.526 132.894 137.401 132.732 137.283 132.564C137.171 132.39 137.078 132.21 136.997 132.023C136.922 131.836 136.859 131.643 136.823 131.444C136.779 131.239 136.76 131.04 136.76 130.834C136.76 130.629 136.778 130.43 136.823 130.225C136.86 130.025 136.922 129.833 136.997 129.646C137.078 129.459 137.171 129.279 137.283 129.105C137.401 128.936 137.526 128.775 137.669 128.632C137.818 128.488 137.973 128.358 138.148 128.246C138.317 128.134 138.497 128.04 138.683 127.96C138.87 127.885 139.062 127.823 139.262 127.785C139.666 127.704 140.077 127.704 140.482 127.785C140.681 127.823 140.874 127.885 141.06 127.96C141.248 128.04 141.428 128.134 141.602 128.246C141.77 128.358 141.932 128.488 142.075 128.632C142.654 129.217 142.984 130.019 142.984 130.834C142.984 131.04 142.965 131.239 142.921 131.444C142.884 131.643 142.821 131.836 142.747 132.023C142.666 132.21 142.573 132.39 142.461 132.564C142.348 132.732 142.218 132.894 142.075 133.037C141.932 133.18 141.77 133.311 141.602 133.423C141.428 133.535 141.248 133.628 141.06 133.709C140.874 133.784 140.681 133.846 140.482 133.884C140.282 133.927 140.077 133.946 139.872 133.946Z" fill="#A4FFFA"/>
<path d="M75.7772 75.4518C74.962 75.4518 74.1593 75.122 73.5806 74.5433C73.0019 73.9583 72.6658 73.1618 72.6658 72.3404C72.6658 72.135 72.6845 71.9359 72.7281 71.7306C72.7654 71.5314 72.8276 71.3385 72.9085 71.1518C72.9832 70.9652 73.0765 70.7847 73.1885 70.6105C73.3068 70.4424 73.4375 70.2807 73.5806 70.1375C74.3024 69.4157 75.3727 69.0859 76.387 69.2912C76.5862 69.3286 76.7791 69.3908 76.9658 69.4655C77.1587 69.5464 77.3391 69.6397 77.5072 69.7517C77.6752 69.8637 77.837 69.9944 77.9801 70.1375C78.1232 70.2807 78.2539 70.4424 78.3659 70.6105C78.4779 70.7785 78.5712 70.9652 78.6521 71.1518C78.7268 71.3385 78.789 71.5314 78.8264 71.7306C78.8699 71.9359 78.8886 72.135 78.8886 72.3404C78.8886 72.5457 78.8699 72.7511 78.8264 72.9502C78.789 73.1494 78.7268 73.3423 78.6521 73.5289C78.5712 73.7156 78.4779 73.8961 78.3659 74.0703C78.2539 74.2383 78.1232 74.4001 77.9801 74.5433C77.837 74.6864 77.6752 74.8108 77.5072 74.9291C77.3391 75.0411 77.1587 75.1344 76.9658 75.2153C76.7791 75.29 76.5862 75.3522 76.387 75.3896C76.1879 75.4325 75.9826 75.4518 75.7772 75.4518Z" fill="#A4FFFA"/>
<path d="M49.0193 95.3646C48.1979 95.3646 47.4014 95.0348 46.8226 94.4561C46.6795 94.3067 46.5488 94.1512 46.4306 93.9769C46.3186 93.8089 46.2253 93.6285 46.1444 93.4418C46.0697 93.2551 46.0075 93.0622 45.9701 92.8631C45.9266 92.6577 45.9079 92.4586 45.9079 92.2532C45.9079 92.0479 45.9266 91.8487 45.9701 91.6434C46.0075 91.4443 46.0697 91.2514 46.1444 91.0647C46.2253 90.878 46.3186 90.6975 46.4306 90.5233C46.5488 90.3553 46.6795 90.1935 46.8226 90.0504C47.5445 89.3285 48.6148 88.9987 49.6291 89.2041C49.8282 89.2414 50.0211 89.3036 50.2078 89.3783C50.4007 89.4592 50.5812 89.5525 50.7492 89.6646C50.9172 89.7766 51.079 89.9072 51.2221 90.0504C51.3653 90.1935 51.4959 90.3553 51.608 90.5233C51.72 90.6975 51.8133 90.878 51.8942 91.0647C51.9689 91.2514 52.0311 91.4443 52.0684 91.6434C52.112 91.8487 52.1307 92.0479 52.1307 92.2532C52.1307 92.4586 52.112 92.6577 52.0684 92.8631C52.0311 93.0622 51.9689 93.2551 51.8942 93.4418C51.8133 93.6285 51.72 93.8089 51.608 93.9769C51.4959 94.1512 51.3653 94.3067 51.2221 94.4561C51.079 94.5992 50.9172 94.7299 50.7492 94.8419C50.5812 94.9539 50.4007 95.0473 50.2078 95.1282C50.0211 95.2028 49.8282 95.2651 49.6291 95.3024C49.43 95.3453 49.2246 95.3646 49.0193 95.3646Z" fill="#A4FFFA"/>
<path d="M52.1307 168.793C51.9315 168.793 51.7262 168.775 51.5208 168.731C51.3279 168.694 51.1288 168.632 50.9421 168.557C50.7554 168.476 50.575 168.383 50.407 168.271C50.2327 168.152 50.0772 168.028 49.934 167.885C49.3553 167.3 49.0193 166.503 49.0193 165.682C49.0193 165.477 49.038 165.277 49.0815 165.072C49.1189 164.873 49.1811 164.68 49.262 164.493C49.3366 164.307 49.43 164.126 49.542 163.952C49.6602 163.784 49.7909 163.628 49.934 163.479C50.0772 163.336 50.2327 163.205 50.407 163.093C50.575 162.981 50.7554 162.888 50.9421 162.807C51.1288 162.732 51.3279 162.67 51.5208 162.633C51.9253 162.552 52.336 162.552 52.7405 162.633C52.9396 162.67 53.1325 162.732 53.3192 162.807C53.5121 162.888 53.6926 162.981 53.8606 163.093C54.0286 163.205 54.1904 163.336 54.3335 163.479C54.4767 163.628 54.6073 163.784 54.7193 163.952C54.8314 164.126 54.9247 164.307 55.0056 164.493C55.0803 164.68 55.1425 164.873 55.1798 165.072C55.2234 165.277 55.2421 165.477 55.2421 165.682C55.2421 165.887 55.2234 166.093 55.1798 166.292C55.1425 166.491 55.0803 166.684 55.0056 166.871C54.9247 167.057 54.8314 167.244 54.7193 167.412C54.6073 167.58 54.4767 167.742 54.3335 167.885C53.7548 168.463 52.9521 168.793 52.1307 168.793Z" fill="#A4FFFA"/>
<path d="M160.407 59.8949C160.208 59.8949 160.003 59.8762 159.797 59.8327C159.598 59.7953 159.405 59.7331 159.218 59.6584C159.032 59.5775 158.851 59.4842 158.677 59.3722C158.508 59.2602 158.347 59.1295 158.204 58.9864C158.061 58.837 157.936 58.6815 157.818 58.5134C157.706 58.3392 157.613 58.1587 157.532 57.9721C157.457 57.7854 157.395 57.5925 157.358 57.3933C157.314 57.188 157.296 56.9889 157.296 56.7835C157.296 55.9621 157.625 55.1656 158.204 54.5806C158.347 54.4375 158.508 54.3068 158.677 54.1948C158.851 54.0828 159.032 53.9895 159.218 53.9086C159.405 53.8339 159.604 53.7717 159.797 53.7343C160.811 53.529 161.882 53.8588 162.61 54.5806C163.189 55.1656 163.519 55.9621 163.519 56.7835C163.519 56.9889 163.5 57.188 163.456 57.3933C163.419 57.5925 163.357 57.7854 163.282 57.9721C163.201 58.1587 163.108 58.3392 162.996 58.5134C162.884 58.6815 162.753 58.837 162.61 58.9864C162.031 59.5645 161.228 59.8949 160.407 59.8949Z" fill="#A4FFFA"/>
<path d="M126.182 39.982C125.983 39.982 125.777 39.9633 125.572 39.9197C125.373 39.8824 125.18 39.8202 124.993 39.7455C124.806 39.6646 124.626 39.5713 124.452 39.4592C124.283 39.341 124.128 39.2166 123.979 39.0734C123.399 38.4947 123.07 37.692 123.07 36.8706C123.07 36.0492 123.399 35.2464 123.979 34.6739C124.128 34.5246 124.283 34.4001 124.452 34.2819C124.626 34.1699 124.806 34.0765 124.993 33.9957C125.18 33.921 125.372 33.8588 125.572 33.8214C125.976 33.7405 126.387 33.7405 126.792 33.8214C126.991 33.8588 127.184 33.921 127.37 33.9957C127.558 34.0765 127.738 34.1699 127.912 34.2819C128.08 34.4001 128.241 34.5246 128.385 34.6739C128.964 35.2464 129.294 36.0492 129.294 36.8706C129.294 37.692 128.964 38.4947 128.385 39.0734C128.242 39.2166 128.08 39.341 127.912 39.4592C127.738 39.5713 127.558 39.6646 127.37 39.7455C127.184 39.8202 126.991 39.8824 126.792 39.9197C126.592 39.9627 126.386 39.982 126.182 39.982Z" fill="#A4FFFA"/>
<path d="M179.075 92.8755C178.876 92.8755 178.671 92.8569 178.465 92.8133C178.266 92.776 178.073 92.7137 177.887 92.6391C177.7 92.5582 177.52 92.4648 177.352 92.3528C177.177 92.2408 177.022 92.1101 176.879 91.967C176.294 91.3821 175.964 90.5855 175.964 89.7641C175.964 88.9427 176.293 88.14 176.879 87.5613C177.021 87.4181 177.177 87.2875 177.352 87.1755C177.52 87.0634 177.701 86.9701 177.887 86.8892C178.073 86.8145 178.266 86.7523 178.465 86.715C178.87 86.6341 179.281 86.6341 179.685 86.715C179.884 86.7523 180.077 86.8145 180.264 86.8892C180.451 86.9701 180.638 87.0634 180.805 87.1755C180.974 87.2875 181.135 87.4181 181.279 87.5613C181.858 88.14 182.187 88.9427 182.187 89.7641C182.187 90.5855 181.858 91.3821 181.279 91.967C181.136 92.1101 180.974 92.2408 180.805 92.3528C180.637 92.4648 180.451 92.5582 180.264 92.6391C180.077 92.7137 179.885 92.776 179.685 92.8133C179.485 92.8562 179.28 92.8755 179.075 92.8755Z" fill="#A4FFFA"/>
<path d="M97.5569 196.174C97.3578 196.174 97.1525 196.155 96.9471 196.111C96.7542 196.074 96.5551 196.012 96.3684 195.937C96.1817 195.856 96.0012 195.763 95.8332 195.651C95.659 195.539 95.5034 195.408 95.3603 195.265C95.2172 195.116 95.0865 194.96 94.9683 194.792C94.8563 194.618 94.7629 194.437 94.682 194.251C94.6074 194.064 94.5451 193.871 94.5078 193.672C94.4642 193.467 94.4456 193.268 94.4456 193.062C94.4456 192.241 94.7816 191.438 95.3603 190.859C95.5034 190.716 95.659 190.586 95.8332 190.474C96.0012 190.362 96.1817 190.268 96.3684 190.187C96.5551 190.113 96.7542 190.05 96.9471 190.013C97.3516 189.932 97.7623 189.932 98.1668 190.013C98.3659 190.05 98.5588 190.113 98.7455 190.187C98.9384 190.268 99.1189 190.362 99.2869 190.474C99.4549 190.586 99.6167 190.716 99.7598 190.859C100.339 191.438 100.668 192.241 100.668 193.062C100.668 193.268 100.65 193.467 100.606 193.672C100.569 193.871 100.507 194.064 100.432 194.251C100.351 194.437 100.258 194.618 100.146 194.792C100.034 194.96 99.9029 195.116 99.7598 195.265C99.6167 195.408 99.4549 195.539 99.2869 195.651C99.1189 195.763 98.9384 195.856 98.7455 195.937C98.5588 196.012 98.3659 196.074 98.1668 196.111C97.9676 196.154 97.7623 196.174 97.5569 196.174Z" fill="#A4FFFA"/>
</svg>
