<svg width="183" height="167" viewBox="0 0 183 167" fill="none" xmlns="http://www.w3.org/2000/svg">
<path d="M172.082 166.948C170.328 166.948 168.678 166.759 167.13 166.381C165.617 165.968 164.379 165.195 163.416 164.06C162.488 162.925 162.024 161.274 162.024 159.108C162.024 157.32 162.35 155.858 163.004 154.723C163.691 153.554 164.551 152.66 165.583 152.041C166.649 151.422 167.749 151.009 168.884 150.803C170.019 150.562 171.033 150.442 171.927 150.442C172.65 150.442 173.337 150.476 173.991 150.545C174.679 150.579 175.315 150.648 175.899 150.751C176.209 150.855 176.364 150.631 176.364 150.081C176.364 148.808 175.968 147.914 175.177 147.399C174.421 146.883 173.355 146.625 171.979 146.625C170.672 146.625 169.417 146.865 168.213 147.347C167.044 147.828 166.047 148.275 165.222 148.688C164.843 148.894 164.586 148.963 164.448 148.894C164.345 148.826 164.259 148.602 164.19 148.224L163.726 145.335C163.657 144.888 163.657 144.596 163.726 144.458C163.795 144.321 163.984 144.149 164.293 143.942C165.187 143.358 166.322 142.894 167.698 142.55C169.073 142.171 170.535 141.982 172.082 141.982C174.421 141.982 176.295 142.257 177.705 142.808C179.115 143.323 180.164 144.028 180.851 144.923C181.573 145.817 182.038 146.848 182.244 148.017C182.485 149.152 182.605 150.339 182.605 151.577C182.64 153.021 182.64 154.448 182.605 155.858C182.605 157.234 182.571 158.609 182.502 159.985C182.433 161.36 182.33 162.753 182.192 164.163C182.124 164.541 182.021 164.834 181.883 165.04C181.745 165.212 181.47 165.401 181.058 165.607C180.576 165.848 179.94 166.054 179.149 166.226C178.358 166.364 177.498 166.484 176.57 166.587C175.676 166.725 174.833 166.811 174.042 166.845C173.251 166.914 172.598 166.948 172.082 166.948ZM172.495 162.977C172.77 162.977 173.079 162.959 173.423 162.925C173.767 162.891 174.111 162.822 174.455 162.719C174.799 162.581 175.074 162.426 175.28 162.254C175.521 162.082 175.659 161.859 175.693 161.584C175.796 160.758 175.882 159.847 175.951 158.85C176.02 157.853 176.02 156.89 175.951 155.961C175.951 155.514 175.779 155.205 175.435 155.033C175.091 154.792 174.593 154.654 173.939 154.62C173.32 154.551 172.804 154.517 172.392 154.517C172.082 154.517 171.687 154.586 171.205 154.723C170.758 154.826 170.328 155.033 169.916 155.342C169.503 155.652 169.159 156.116 168.884 156.735C168.643 157.354 168.523 158.145 168.523 159.108C168.523 159.864 168.678 160.535 168.987 161.12C169.297 161.704 169.744 162.168 170.328 162.512C170.913 162.822 171.635 162.977 172.495 162.977Z" fill="white" fill-opacity="0.85"/>
<path d="M151.598 167C149.397 167 147.558 166.673 146.079 166.02C144.635 165.366 143.517 164.455 142.726 163.286C141.935 162.117 141.385 160.776 141.075 159.263C140.766 157.749 140.611 156.116 140.611 154.362C140.611 152.746 140.766 151.198 141.075 149.72C141.419 148.241 141.987 146.9 142.778 145.696C143.603 144.493 144.721 143.547 146.13 142.859C147.575 142.171 149.38 141.828 151.547 141.828C153.06 141.828 154.367 141.982 155.467 142.292C156.602 142.601 157.599 143.117 158.459 143.839C158.699 144.08 158.854 144.269 158.923 144.407C159.026 144.51 159.078 144.699 159.078 144.974V148.791C159.078 149.101 158.975 149.273 158.768 149.307C158.596 149.307 158.424 149.238 158.252 149.101C157.358 148.31 156.413 147.794 155.415 147.553C154.452 147.312 153.455 147.192 152.424 147.192C151.529 147.192 150.739 147.398 150.051 147.811C149.397 148.189 148.864 148.722 148.452 149.41C148.039 150.098 147.712 150.889 147.472 151.783C147.265 152.643 147.162 153.52 147.162 154.414C147.162 155.996 147.351 157.354 147.73 158.489C148.108 159.589 148.658 160.449 149.38 161.068C150.102 161.653 150.996 161.945 152.062 161.945C152.853 161.945 153.627 161.842 154.384 161.635C155.175 161.429 156.034 161.102 156.963 160.655C157.547 160.38 157.96 160.518 158.201 161.068L159.439 163.957C159.576 164.232 159.611 164.455 159.542 164.627C159.508 164.765 159.37 164.902 159.129 165.04C158.235 165.693 157.1 166.192 155.725 166.536C154.349 166.845 152.974 167 151.598 167Z" fill="white" fill-opacity="0.85"/>
<path d="M137.159 135.586C137.159 136.618 136.936 137.409 136.489 137.959C136.042 138.475 135.113 138.733 133.703 138.733C132.362 138.733 131.434 138.475 130.918 137.959C130.437 137.409 130.196 136.618 130.196 135.586C130.196 134.692 130.437 133.97 130.918 133.42C131.434 132.835 132.362 132.543 133.703 132.543C135.182 132.543 136.128 132.835 136.54 133.42C136.953 133.97 137.159 134.692 137.159 135.586ZM137.005 165.968C137.005 166.381 136.764 166.587 136.283 166.587H131.021C130.608 166.587 130.402 166.381 130.402 165.968V142.859C130.402 142.447 130.608 142.24 131.021 142.24H136.283C136.764 142.24 137.005 142.447 137.005 142.859V165.968Z" fill="white" fill-opacity="0.85"/>
<path d="M121.509 166.587C119.171 166.587 117.417 166.106 116.248 165.143C115.113 164.146 114.357 162.77 113.978 161.016C113.703 159.572 113.548 158.093 113.514 156.58C113.514 155.067 113.514 153.537 113.514 151.989C113.514 150.992 113.514 150.115 113.514 149.359C113.548 148.602 113.583 147.759 113.617 146.831C113.617 146.487 113.462 146.315 113.153 146.315H111.038C110.763 146.315 110.574 146.281 110.471 146.212C110.402 146.143 110.367 145.937 110.367 145.593V143.014C110.367 142.601 110.402 142.378 110.471 142.343C110.574 142.274 110.814 142.24 111.193 142.24H113.308C113.583 142.24 113.738 142.171 113.772 142.034C113.806 141.896 113.841 141.673 113.875 141.363L114.081 137.494C114.081 137.082 114.288 136.875 114.7 136.875H119.859C120.031 136.875 120.203 136.944 120.375 137.082C120.546 137.185 120.615 137.323 120.581 137.494L120.323 141.363C120.289 141.776 120.289 142.034 120.323 142.137C120.392 142.206 120.529 142.24 120.736 142.24H125.069C125.412 142.24 125.619 142.292 125.688 142.395C125.756 142.464 125.791 142.704 125.791 143.117V145.541C125.791 145.885 125.739 146.109 125.636 146.212C125.533 146.281 125.309 146.315 124.965 146.315H120.684C120.478 146.315 120.323 146.384 120.22 146.521C120.151 146.625 120.117 146.797 120.117 147.037C120.082 147.931 120.048 148.843 120.013 149.771C119.979 150.665 119.962 151.594 119.962 152.557C119.962 153.76 119.979 154.981 120.013 156.219C120.082 157.423 120.237 158.592 120.478 159.727C120.684 160.38 120.976 160.844 121.355 161.119C121.733 161.395 122.231 161.532 122.85 161.532C123.263 161.532 123.659 161.481 124.037 161.377C124.415 161.24 124.742 161.137 125.017 161.068C125.43 160.827 125.688 160.758 125.791 160.862C125.894 160.93 126.014 161.137 126.152 161.481L127.029 164.575C127.166 164.816 127.132 165.04 126.926 165.246C126.719 165.418 126.307 165.624 125.688 165.865C125.275 166.003 124.828 166.14 124.346 166.278C123.865 166.381 123.384 166.467 122.902 166.536C122.421 166.57 121.956 166.587 121.509 166.587Z" fill="white" fill-opacity="0.85"/>
<path d="M100.922 167C98.7213 167 96.8816 166.673 95.4028 166.02C93.9585 165.366 92.8409 164.455 92.05 163.286C91.259 162.117 90.7088 160.776 90.3993 159.263C90.0898 157.749 89.9351 156.116 89.9351 154.362C89.9351 152.746 90.0898 151.198 90.3993 149.72C90.7432 148.241 91.3106 146.9 92.1015 145.696C92.9269 144.493 94.0445 143.547 95.4544 142.859C96.8987 142.171 98.7041 141.828 100.871 141.828C102.384 141.828 103.69 141.982 104.791 142.292C105.926 142.601 106.923 143.117 107.783 143.839C108.023 144.08 108.178 144.269 108.247 144.407C108.35 144.51 108.402 144.699 108.402 144.974V148.791C108.402 149.101 108.299 149.273 108.092 149.307C107.92 149.307 107.748 149.238 107.576 149.101C106.682 148.31 105.737 147.794 104.739 147.553C103.776 147.312 102.779 147.192 101.748 147.192C100.853 147.192 100.062 147.398 99.3747 147.811C98.7213 148.189 98.1883 148.722 97.7757 149.41C97.363 150.098 97.0363 150.889 96.7956 151.783C96.5892 152.643 96.4861 153.52 96.4861 154.414C96.4861 155.996 96.6752 157.354 97.0535 158.489C97.4318 159.589 97.982 160.449 98.7041 161.068C99.4263 161.653 100.32 161.945 101.386 161.945C102.177 161.945 102.951 161.842 103.708 161.635C104.499 161.429 105.358 161.102 106.287 160.655C106.871 160.38 107.284 160.518 107.525 161.068L108.763 163.957C108.9 164.232 108.935 164.455 108.866 164.627C108.832 164.765 108.694 164.902 108.453 165.04C107.559 165.693 106.424 166.192 105.049 166.536C103.673 166.845 102.298 167 100.922 167Z" fill="white" fill-opacity="0.85"/>
<path d="M75.9185 166.948C74.1647 166.948 72.5141 166.759 70.9666 166.381C69.4535 165.968 68.2155 165.195 67.2526 164.06C66.3241 162.925 65.8599 161.274 65.8599 159.108C65.8599 157.32 66.1866 155.858 66.8399 154.723C67.5277 153.554 68.3874 152.66 69.4191 152.041C70.4851 151.422 71.5856 151.009 72.7204 150.803C73.8552 150.562 74.8697 150.442 75.7638 150.442C76.4859 150.442 77.1737 150.476 77.8271 150.545C78.5149 150.579 79.151 150.648 79.7357 150.751C80.0451 150.855 80.1999 150.631 80.1999 150.081C80.1999 148.808 79.8044 147.914 79.0135 147.399C78.2569 146.883 77.1909 146.625 75.8154 146.625C74.5086 146.625 73.2534 146.865 72.0498 147.347C70.8806 147.828 69.8833 148.275 69.058 148.688C68.6797 148.894 68.4218 148.963 68.2843 148.894C68.1811 148.826 68.0951 148.602 68.0263 148.224L67.5621 145.335C67.4933 144.888 67.4933 144.596 67.5621 144.458C67.6309 144.321 67.82 144.149 68.1295 143.942C69.0236 143.358 70.1584 142.894 71.534 142.55C72.9095 142.171 74.371 141.982 75.9185 141.982C78.2569 141.982 80.1311 142.257 81.541 142.808C82.951 143.323 83.9998 144.028 84.6876 144.923C85.4098 145.817 85.874 146.848 86.0803 148.017C86.3211 149.152 86.4414 150.339 86.4414 151.577C86.4758 153.021 86.4758 154.448 86.4414 155.858C86.4414 157.234 86.407 158.609 86.3383 159.985C86.2695 161.36 86.1663 162.753 86.0288 164.163C85.96 164.541 85.8568 164.834 85.7193 165.04C85.5817 165.212 85.3066 165.401 84.8939 165.607C84.4125 165.848 83.7763 166.054 82.9854 166.226C82.1944 166.364 81.3347 166.484 80.4062 166.587C79.5121 166.725 78.6696 166.811 77.8787 166.845C77.0877 166.914 76.4344 166.948 75.9185 166.948ZM76.3312 162.977C76.6063 162.977 76.9158 162.959 77.2597 162.925C77.6036 162.891 77.9474 162.822 78.2913 162.719C78.6352 162.581 78.9103 162.426 79.1167 162.254C79.3574 162.082 79.4949 161.859 79.5293 161.584C79.6325 160.758 79.7185 159.847 79.7872 158.85C79.856 157.853 79.856 156.89 79.7872 155.961C79.7872 155.514 79.6153 155.205 79.2714 155.033C78.9275 154.792 78.4289 154.654 77.7755 154.62C77.1565 154.551 76.6407 154.517 76.228 154.517C75.9185 154.517 75.5231 154.586 75.0416 154.723C74.5946 154.826 74.1647 155.033 73.752 155.342C73.3394 155.652 72.9955 156.116 72.7204 156.735C72.4797 157.354 72.3593 158.145 72.3593 159.108C72.3593 159.864 72.5141 160.535 72.8235 161.12C73.133 161.704 73.5801 162.168 74.1647 162.512C74.7493 162.822 75.4715 162.977 76.3312 162.977Z" fill="white" fill-opacity="0.85"/>
<path d="M55.0944 165.968V130.686C55.0944 130.273 55.3179 130.067 55.7649 130.067H60.9748C61.4562 130.067 61.697 130.273 61.697 130.686V165.968C61.697 166.381 61.4562 166.587 60.9748 166.587H55.7649C55.3179 166.587 55.0944 166.381 55.0944 165.968Z" fill="white" fill-opacity="0.85"/>
<path d="M40.3041 166.948C38.5503 166.948 36.8997 166.759 35.3522 166.381C33.8391 165.968 32.6011 165.195 31.6382 164.06C30.7097 162.925 30.2455 161.274 30.2455 159.108C30.2455 157.32 30.5722 155.858 31.2256 154.723C31.9133 153.554 32.773 152.66 33.8047 152.041C34.8707 151.422 35.9712 151.009 37.106 150.803C38.2408 150.562 39.2553 150.442 40.1494 150.442C40.8715 150.442 41.5593 150.476 42.2127 150.545C42.9005 150.579 43.5367 150.648 44.1213 150.751C44.4308 150.855 44.5855 150.631 44.5855 150.081C44.5855 148.808 44.19 147.914 43.3991 147.399C42.6426 146.883 41.5765 146.625 40.201 146.625C38.8942 146.625 37.639 146.865 36.4354 147.347C35.2662 147.828 34.2689 148.275 33.4436 148.688C33.0653 148.894 32.8074 148.963 32.6699 148.894C32.5667 148.826 32.4807 148.602 32.412 148.224L31.9477 145.335C31.8789 144.888 31.8789 144.596 31.9477 144.458C32.0165 144.321 32.2056 144.149 32.5151 143.942C33.4092 143.358 34.5441 142.894 35.9196 142.55C37.2951 142.171 38.7567 141.982 40.3041 141.982C42.6426 141.982 44.5167 142.257 45.9267 142.808C47.3366 143.323 48.3855 144.028 49.0732 144.923C49.7954 145.817 50.2596 146.848 50.466 148.017C50.7067 149.152 50.827 150.339 50.827 151.577C50.8614 153.021 50.8614 154.448 50.827 155.858C50.827 157.234 50.7927 158.609 50.7239 159.985C50.6551 161.36 50.5519 162.753 50.4144 164.163C50.3456 164.541 50.2424 164.834 50.1049 165.04C49.9673 165.212 49.6922 165.401 49.2796 165.607C48.7981 165.848 48.1619 166.054 47.371 166.226C46.5801 166.364 45.7203 166.484 44.7918 166.587C43.8977 166.725 43.0552 166.811 42.2643 166.845C41.4733 166.914 40.82 166.948 40.3041 166.948ZM40.7168 162.977C40.9919 162.977 41.3014 162.959 41.6453 162.925C41.9892 162.891 42.3331 162.822 42.677 162.719C43.0208 162.581 43.2959 162.426 43.5023 162.254C43.743 162.082 43.8806 161.859 43.9149 161.584C44.0181 160.758 44.1041 159.847 44.1729 158.85C44.2416 157.853 44.2416 156.89 44.1729 155.961C44.1729 155.514 44.0009 155.205 43.657 155.033C43.3131 154.792 42.8145 154.654 42.1611 154.62C41.5421 154.551 41.0263 154.517 40.6136 154.517C40.3041 154.517 39.9087 154.586 39.4272 154.723C38.9802 154.826 38.5503 155.033 38.1377 155.342C37.725 155.652 37.3811 156.116 37.106 156.735C36.8653 157.354 36.7449 158.145 36.7449 159.108C36.7449 159.864 36.8997 160.535 37.2092 161.12C37.5187 161.704 37.9657 162.168 38.5503 162.512C39.1349 162.822 39.8571 162.977 40.7168 162.977Z" fill="white" fill-opacity="0.85"/>
<path d="M25.6962 164.988C25.6962 165.435 25.3867 165.814 24.7677 166.123C24.1831 166.398 23.3922 166.587 22.3949 166.69C21.3976 166.828 20.28 166.897 19.042 166.897C12.8521 166.897 8.19242 165.452 5.06306 162.564C1.9337 159.641 0.369019 155.377 0.369019 149.771C0.369019 146.023 1.07398 142.79 2.48392 140.074C3.92824 137.357 5.90558 135.277 8.41594 133.832C10.9263 132.353 13.7806 131.614 16.9787 131.614C18.3542 131.614 19.6954 131.666 21.0022 131.769C22.3433 131.872 23.3922 132.061 24.1487 132.336C24.6302 132.474 24.9568 132.594 25.1288 132.697C25.3351 132.801 25.4383 133.076 25.4383 133.523V137.133C25.4383 137.787 25.3007 138.2 25.0256 138.371C24.7505 138.509 24.441 138.475 24.0971 138.268C23.2374 137.787 22.3605 137.443 21.4664 137.237C20.5723 136.996 19.5578 136.876 18.423 136.876C17.4257 136.876 16.2909 137.048 15.0185 137.391C13.7806 137.735 12.5942 138.371 11.4593 139.3C10.3589 140.194 9.43041 141.466 8.67386 143.117C7.9517 144.733 7.59062 146.848 7.59062 149.462C7.59062 152.144 7.9345 154.293 8.62227 155.91C9.34443 157.526 10.2213 158.747 11.253 159.572C12.319 160.397 13.4023 160.948 14.5027 161.223C15.6375 161.498 16.6176 161.635 17.4429 161.635C18.337 161.635 18.8185 161.412 18.8873 160.965V152.041C18.8873 151.835 18.8529 151.714 18.7841 151.68C18.7497 151.645 18.6465 151.628 18.4746 151.628H12.6457C12.3019 151.628 12.0783 151.594 11.9752 151.525C11.872 151.456 11.8204 151.25 11.8204 150.906V147.192C11.8204 146.848 11.8548 146.625 11.9236 146.522C12.0267 146.418 12.2675 146.367 12.6457 146.367H24.6645C25.1804 146.367 25.4727 146.436 25.5415 146.573C25.6446 146.676 25.6962 146.986 25.6962 147.502V164.988Z" fill="white" fill-opacity="0.85"/>
<circle cx="89.5444" cy="57.3184" r="57.1035" fill="url(#paint0_linear_81_2)"/>
<path fill-rule="evenodd" clip-rule="evenodd" d="M89.5217 114.422C121.059 114.422 146.625 88.8558 146.625 57.3184C146.625 25.781 121.059 0.214844 89.5217 0.214844C82.6608 0.214844 76.0824 1.42484 69.9884 3.64308C93.1038 10.9507 109.86 32.5688 109.86 58.1006C109.86 82.777 94.2077 103.798 72.2898 111.776C77.727 113.495 83.5161 114.422 89.5217 114.422Z" fill="black" fill-opacity="0.25"/>
<ellipse cx="94.2378" cy="47.9315" rx="8.60464" ry="7.8224" fill="black" fill-opacity="0.28"/>
<ellipse cx="78.9842" cy="18.2063" rx="2.73784" ry="2.34672" fill="black" fill-opacity="0.28"/>
<ellipse cx="72.7262" cy="26.8111" rx="2.73784" ry="2.34672" fill="black" fill-opacity="0.28"/>
<ellipse cx="84.4599" cy="29.1578" rx="2.73784" ry="2.34672" fill="black" fill-opacity="0.28"/>
<ellipse cx="87.5888" cy="19.7708" rx="1.9556" ry="1.56448" fill="black" fill-opacity="0.28"/>
<ellipse cx="94.2232" cy="10.2559" rx="2.72242" ry="1.55954" transform="rotate(15.1951 94.2232 10.2559)" fill="black" fill-opacity="0.28"/>
<ellipse cx="134.914" cy="47.1493" rx="4.69344" ry="7.8224" fill="black" fill-opacity="0.28"/>
<ellipse cx="123.402" cy="28.1982" rx="1.78275" ry="2.97126" transform="rotate(-28.7267 123.402 28.1982)" fill="black" fill-opacity="0.28"/>
<ellipse cx="107.829" cy="95.6002" rx="7.8224" ry="5.08456" transform="rotate(-15.5202 107.829 95.6002)" fill="black" fill-opacity="0.28"/>
<ellipse cx="122.589" cy="78.2743" rx="3.78658" ry="2.46128" transform="rotate(-15.5202 122.589 78.2743)" fill="black" fill-opacity="0.28"/>
<defs>
<linearGradient id="paint0_linear_81_2" x1="65.295" y1="34.2423" x2="124.354" y2="93.3014" gradientUnits="userSpaceOnUse">
<stop stop-color="#2FFFFF" stop-opacity="0.8"/>
<stop offset="1" stop-color="#2FA8FF" stop-opacity="0.8"/>
</linearGradient>
</defs>
</svg>
