<svg width="136" height="51" viewBox="0 0 136 51" fill="none" xmlns="http://www.w3.org/2000/svg">
<path d="M74.44 31.38C74.44 31.5533 74.32 31.7 74.08 31.82C73.8533 31.9267 73.5467 32 73.16 32.04C72.7733 32.0933 72.34 32.12 71.86 32.12C69.46 32.12 67.6533 31.56 66.44 30.44C65.2267 29.3067 64.62 27.6533 64.62 25.48C64.62 24.0267 64.8933 22.7733 65.44 21.72C66 20.6667 66.7667 19.86 67.74 19.3C68.7133 18.7267 69.82 18.44 71.06 18.44C71.5933 18.44 72.1133 18.46 72.62 18.5C73.14 18.54 73.5467 18.6133 73.84 18.72C74.0267 18.7733 74.1533 18.82 74.22 18.86C74.3 18.9 74.34 19.0067 74.34 19.18V20.58C74.34 20.8333 74.2867 20.9933 74.18 21.06C74.0733 21.1133 73.9533 21.1 73.82 21.02C73.4867 20.8333 73.1467 20.7 72.8 20.62C72.4533 20.5267 72.06 20.48 71.62 20.48C71.2333 20.48 70.7933 20.5467 70.3 20.68C69.82 20.8133 69.36 21.06 68.92 21.42C68.4933 21.7667 68.1333 22.26 67.84 22.9C67.56 23.5267 67.42 24.3467 67.42 25.36C67.42 26.4 67.5533 27.2333 67.82 27.86C68.1 28.4867 68.44 28.96 68.84 29.28C69.2533 29.6 69.6733 29.8133 70.1 29.92C70.54 30.0267 70.92 30.08 71.24 30.08C71.5867 30.08 71.7733 29.9933 71.8 29.82V26.36C71.8 26.28 71.7867 26.2333 71.76 26.22C71.7467 26.2067 71.7067 26.2 71.64 26.2H69.38C69.2467 26.2 69.16 26.1867 69.12 26.16C69.08 26.1333 69.06 26.0533 69.06 25.92V24.48C69.06 24.3467 69.0733 24.26 69.1 24.22C69.14 24.18 69.2333 24.16 69.38 24.16H74.04C74.24 24.16 74.3533 24.1867 74.38 24.24C74.42 24.28 74.44 24.4 74.44 24.6V31.38ZM80.1039 32.14C79.4239 32.14 78.7839 32.0667 78.1839 31.92C77.5972 31.76 77.1172 31.46 76.7439 31.02C76.3839 30.58 76.2039 29.94 76.2039 29.1C76.2039 28.4067 76.3306 27.84 76.5839 27.4C76.8506 26.9467 77.1839 26.6 77.5839 26.36C77.9972 26.12 78.4239 25.96 78.8639 25.88C79.3039 25.7867 79.6972 25.74 80.0439 25.74C80.3239 25.74 80.5906 25.7533 80.8439 25.78C81.1106 25.7933 81.3572 25.82 81.5839 25.86C81.7039 25.9 81.7639 25.8133 81.7639 25.6C81.7639 25.1067 81.6106 24.76 81.3039 24.56C81.0106 24.36 80.5972 24.26 80.0639 24.26C79.5572 24.26 79.0706 24.3533 78.6039 24.54C78.1506 24.7267 77.7639 24.9 77.4439 25.06C77.2972 25.14 77.1972 25.1667 77.1439 25.14C77.1039 25.1133 77.0706 25.0267 77.0439 24.88L76.8639 23.76C76.8372 23.5867 76.8372 23.4733 76.8639 23.42C76.8906 23.3667 76.9639 23.3 77.0839 23.22C77.4306 22.9933 77.8706 22.8133 78.4039 22.68C78.9372 22.5333 79.5039 22.46 80.1039 22.46C81.0106 22.46 81.7372 22.5667 82.2839 22.78C82.8306 22.98 83.2372 23.2533 83.5039 23.6C83.7839 23.9467 83.9639 24.3467 84.0439 24.8C84.1372 25.24 84.1839 25.7 84.1839 26.18C84.1972 26.74 84.1972 27.2933 84.1839 27.84C84.1839 28.3733 84.1706 28.9067 84.1439 29.44C84.1172 29.9733 84.0772 30.5133 84.0239 31.06C83.9972 31.2067 83.9572 31.32 83.9039 31.4C83.8506 31.4667 83.7439 31.54 83.5839 31.62C83.3972 31.7133 83.1506 31.7933 82.8439 31.86C82.5372 31.9133 82.2039 31.96 81.8439 32C81.4972 32.0533 81.1706 32.0867 80.8639 32.1C80.5572 32.1267 80.3039 32.14 80.1039 32.14ZM80.2639 30.6C80.3706 30.6 80.4906 30.5933 80.6239 30.58C80.7572 30.5667 80.8906 30.54 81.0239 30.5C81.1572 30.4467 81.2639 30.3867 81.3439 30.32C81.4372 30.2533 81.4906 30.1667 81.5039 30.06C81.5439 29.74 81.5772 29.3867 81.6039 29C81.6306 28.6133 81.6306 28.24 81.6039 27.88C81.6039 27.7067 81.5372 27.5867 81.4039 27.52C81.2706 27.4267 81.0772 27.3733 80.8239 27.36C80.5839 27.3333 80.3839 27.32 80.2239 27.32C80.1039 27.32 79.9506 27.3467 79.7639 27.4C79.5906 27.44 79.4239 27.52 79.2639 27.64C79.1039 27.76 78.9706 27.94 78.8639 28.18C78.7706 28.42 78.7239 28.7267 78.7239 29.1C78.7239 29.3933 78.7839 29.6533 78.9039 29.88C79.0239 30.1067 79.1972 30.2867 79.4239 30.42C79.6506 30.54 79.9306 30.6 80.2639 30.6ZM85.8384 31.76V18.08C85.8384 17.92 85.9251 17.84 86.0984 17.84H88.1184C88.3051 17.84 88.3984 17.92 88.3984 18.08V31.76C88.3984 31.92 88.3051 32 88.1184 32H86.0984C85.9251 32 85.8384 31.92 85.8384 31.76ZM93.9125 32.14C93.2325 32.14 92.5925 32.0667 91.9925 31.92C91.4058 31.76 90.9258 31.46 90.5525 31.02C90.1925 30.58 90.0125 29.94 90.0125 29.1C90.0125 28.4067 90.1392 27.84 90.3925 27.4C90.6592 26.9467 90.9925 26.6 91.3925 26.36C91.8058 26.12 92.2325 25.96 92.6725 25.88C93.1125 25.7867 93.5058 25.74 93.8525 25.74C94.1325 25.74 94.3992 25.7533 94.6525 25.78C94.9192 25.7933 95.1658 25.82 95.3925 25.86C95.5125 25.9 95.5725 25.8133 95.5725 25.6C95.5725 25.1067 95.4192 24.76 95.1125 24.56C94.8192 24.36 94.4058 24.26 93.8725 24.26C93.3658 24.26 92.8792 24.3533 92.4125 24.54C91.9592 24.7267 91.5725 24.9 91.2525 25.06C91.1058 25.14 91.0058 25.1667 90.9525 25.14C90.9125 25.1133 90.8792 25.0267 90.8525 24.88L90.6725 23.76C90.6458 23.5867 90.6458 23.4733 90.6725 23.42C90.6992 23.3667 90.7725 23.3 90.8925 23.22C91.2392 22.9933 91.6792 22.8133 92.2125 22.68C92.7458 22.5333 93.3125 22.46 93.9125 22.46C94.8192 22.46 95.5458 22.5667 96.0925 22.78C96.6392 22.98 97.0458 23.2533 97.3125 23.6C97.5925 23.9467 97.7725 24.3467 97.8525 24.8C97.9458 25.24 97.9925 25.7 97.9925 26.18C98.0058 26.74 98.0058 27.2933 97.9925 27.84C97.9925 28.3733 97.9792 28.9067 97.9525 29.44C97.9258 29.9733 97.8858 30.5133 97.8325 31.06C97.8058 31.2067 97.7658 31.32 97.7125 31.4C97.6592 31.4667 97.5525 31.54 97.3925 31.62C97.2058 31.7133 96.9592 31.7933 96.6525 31.86C96.3458 31.9133 96.0125 31.96 95.6525 32C95.3058 32.0533 94.9792 32.0867 94.6725 32.1C94.3658 32.1267 94.1125 32.14 93.9125 32.14ZM94.0725 30.6C94.1792 30.6 94.2992 30.5933 94.4325 30.58C94.5658 30.5667 94.6992 30.54 94.8325 30.5C94.9658 30.4467 95.0725 30.3867 95.1525 30.32C95.2458 30.2533 95.2992 30.1667 95.3125 30.06C95.3525 29.74 95.3858 29.3867 95.4125 29C95.4392 28.6133 95.4392 28.24 95.4125 27.88C95.4125 27.7067 95.3458 27.5867 95.2125 27.52C95.0792 27.4267 94.8858 27.3733 94.6325 27.36C94.3925 27.3333 94.1925 27.32 94.0325 27.32C93.9125 27.32 93.7592 27.3467 93.5725 27.4C93.3992 27.44 93.2325 27.52 93.0725 27.64C92.9125 27.76 92.7792 27.94 92.6725 28.18C92.5792 28.42 92.5325 28.7267 92.5325 29.1C92.5325 29.3933 92.5925 29.6533 92.7125 29.88C92.8325 30.1067 93.0058 30.2867 93.2325 30.42C93.4592 30.54 93.7392 30.6 94.0725 30.6ZM103.607 32.16C102.754 32.16 102.04 32.0333 101.467 31.78C100.907 31.5267 100.474 31.1733 100.167 30.72C99.8604 30.2667 99.647 29.7467 99.527 29.16C99.407 28.5733 99.347 27.94 99.347 27.26C99.347 26.6333 99.407 26.0333 99.527 25.46C99.6604 24.8867 99.8804 24.3667 100.187 23.9C100.507 23.4333 100.94 23.0667 101.487 22.8C102.047 22.5333 102.747 22.4 103.587 22.4C104.174 22.4 104.68 22.46 105.107 22.58C105.547 22.7 105.934 22.9 106.267 23.18C106.36 23.2733 106.42 23.3467 106.447 23.4C106.487 23.44 106.507 23.5133 106.507 23.62V25.1C106.507 25.22 106.467 25.2867 106.387 25.3C106.32 25.3 106.254 25.2733 106.187 25.22C105.84 24.9133 105.474 24.7133 105.087 24.62C104.714 24.5267 104.327 24.48 103.927 24.48C103.58 24.48 103.274 24.56 103.007 24.72C102.754 24.8667 102.547 25.0733 102.387 25.34C102.227 25.6067 102.1 25.9133 102.007 26.26C101.927 26.5933 101.887 26.9333 101.887 27.28C101.887 27.8933 101.96 28.42 102.107 28.86C102.254 29.2867 102.467 29.62 102.747 29.86C103.027 30.0867 103.374 30.2 103.787 30.2C104.094 30.2 104.394 30.16 104.687 30.08C104.994 30 105.327 29.8733 105.687 29.7C105.914 29.5933 106.074 29.6467 106.167 29.86L106.647 30.98C106.7 31.0867 106.714 31.1733 106.687 31.24C106.674 31.2933 106.62 31.3467 106.527 31.4C106.18 31.6533 105.74 31.8467 105.207 31.98C104.674 32.1 104.14 32.16 103.607 32.16ZM111.589 32C110.683 32 110.003 31.8133 109.549 31.44C109.109 31.0533 108.816 30.52 108.669 29.84C108.563 29.28 108.503 28.7067 108.489 28.12C108.489 27.5333 108.489 26.94 108.489 26.34C108.489 25.9533 108.489 25.6133 108.489 25.32C108.503 25.0267 108.516 24.7 108.529 24.34C108.529 24.2067 108.469 24.14 108.349 24.14H107.529C107.423 24.14 107.349 24.1267 107.309 24.1C107.283 24.0733 107.269 23.9933 107.269 23.86V22.86C107.269 22.7 107.283 22.6133 107.309 22.6C107.349 22.5733 107.443 22.56 107.589 22.56H108.409C108.516 22.56 108.576 22.5333 108.589 22.48C108.603 22.4267 108.616 22.34 108.629 22.22L108.709 20.72C108.709 20.56 108.789 20.48 108.949 20.48H110.949C111.016 20.48 111.083 20.5067 111.149 20.56C111.216 20.6 111.243 20.6533 111.229 20.72L111.129 22.22C111.116 22.38 111.116 22.48 111.129 22.52C111.156 22.5467 111.209 22.56 111.289 22.56H112.969C113.103 22.56 113.183 22.58 113.209 22.62C113.236 22.6467 113.249 22.74 113.249 22.9V23.84C113.249 23.9733 113.229 24.06 113.189 24.1C113.149 24.1267 113.063 24.14 112.929 24.14H111.269C111.189 24.14 111.129 24.1667 111.089 24.22C111.063 24.26 111.049 24.3267 111.049 24.42C111.036 24.7667 111.023 25.12 111.009 25.48C110.996 25.8267 110.989 26.1867 110.989 26.56C110.989 27.0267 110.996 27.5 111.009 27.98C111.036 28.4467 111.096 28.9 111.189 29.34C111.269 29.5933 111.383 29.7733 111.529 29.88C111.676 29.9867 111.869 30.04 112.109 30.04C112.269 30.04 112.423 30.02 112.569 29.98C112.716 29.9267 112.843 29.8867 112.949 29.86C113.109 29.7667 113.209 29.74 113.249 29.78C113.289 29.8067 113.336 29.8867 113.389 30.02L113.729 31.22C113.783 31.3133 113.769 31.4 113.689 31.48C113.609 31.5467 113.449 31.6267 113.209 31.72C113.049 31.7733 112.876 31.8267 112.689 31.88C112.503 31.92 112.316 31.9533 112.129 31.98C111.943 31.9933 111.763 32 111.589 32ZM117.657 19.98C117.657 20.38 117.571 20.6867 117.397 20.9C117.224 21.1 116.864 21.2 116.317 21.2C115.797 21.2 115.437 21.1 115.237 20.9C115.051 20.6867 114.957 20.38 114.957 19.98C114.957 19.6333 115.051 19.3533 115.237 19.14C115.437 18.9133 115.797 18.8 116.317 18.8C116.891 18.8 117.257 18.9133 117.417 19.14C117.577 19.3533 117.657 19.6333 117.657 19.98ZM117.597 31.76C117.597 31.92 117.504 32 117.317 32H115.277C115.117 32 115.037 31.92 115.037 31.76V22.8C115.037 22.64 115.117 22.56 115.277 22.56H117.317C117.504 22.56 117.597 22.64 117.597 22.8V31.76ZM123.255 32.16C122.402 32.16 121.689 32.0333 121.115 31.78C120.555 31.5267 120.122 31.1733 119.815 30.72C119.509 30.2667 119.295 29.7467 119.175 29.16C119.055 28.5733 118.995 27.94 118.995 27.26C118.995 26.6333 119.055 26.0333 119.175 25.46C119.309 24.8867 119.529 24.3667 119.835 23.9C120.155 23.4333 120.589 23.0667 121.135 22.8C121.695 22.5333 122.395 22.4 123.235 22.4C123.822 22.4 124.329 22.46 124.755 22.58C125.195 22.7 125.582 22.9 125.915 23.18C126.009 23.2733 126.069 23.3467 126.095 23.4C126.135 23.44 126.155 23.5133 126.155 23.62V25.1C126.155 25.22 126.115 25.2867 126.035 25.3C125.969 25.3 125.902 25.2733 125.835 25.22C125.489 24.9133 125.122 24.7133 124.735 24.62C124.362 24.5267 123.975 24.48 123.575 24.48C123.229 24.48 122.922 24.56 122.655 24.72C122.402 24.8667 122.195 25.0733 122.035 25.34C121.875 25.6067 121.749 25.9133 121.655 26.26C121.575 26.5933 121.535 26.9333 121.535 27.28C121.535 27.8933 121.609 28.42 121.755 28.86C121.902 29.2867 122.115 29.62 122.395 29.86C122.675 30.0867 123.022 30.2 123.435 30.2C123.742 30.2 124.042 30.16 124.335 30.08C124.642 30 124.975 29.8733 125.335 29.7C125.562 29.5933 125.722 29.6467 125.815 29.86L126.295 30.98C126.349 31.0867 126.362 31.1733 126.335 31.24C126.322 31.2933 126.269 31.3467 126.175 31.4C125.829 31.6533 125.389 31.8467 124.855 31.98C124.322 32.1 123.789 32.16 123.255 32.16ZM131.198 32.14C130.518 32.14 129.878 32.0667 129.278 31.92C128.691 31.76 128.211 31.46 127.838 31.02C127.478 30.58 127.298 29.94 127.298 29.1C127.298 28.4067 127.424 27.84 127.678 27.4C127.944 26.9467 128.278 26.6 128.678 26.36C129.091 26.12 129.518 25.96 129.958 25.88C130.398 25.7867 130.791 25.74 131.138 25.74C131.418 25.74 131.684 25.7533 131.938 25.78C132.204 25.7933 132.451 25.82 132.678 25.86C132.798 25.9 132.858 25.8133 132.858 25.6C132.858 25.1067 132.704 24.76 132.398 24.56C132.104 24.36 131.691 24.26 131.158 24.26C130.651 24.26 130.164 24.3533 129.698 24.54C129.244 24.7267 128.858 24.9 128.538 25.06C128.391 25.14 128.291 25.1667 128.238 25.14C128.198 25.1133 128.164 25.0267 128.138 24.88L127.958 23.76C127.931 23.5867 127.931 23.4733 127.958 23.42C127.984 23.3667 128.058 23.3 128.178 23.22C128.524 22.9933 128.964 22.8133 129.498 22.68C130.031 22.5333 130.598 22.46 131.198 22.46C132.104 22.46 132.831 22.5667 133.378 22.78C133.924 22.98 134.331 23.2533 134.598 23.6C134.878 23.9467 135.058 24.3467 135.138 24.8C135.231 25.24 135.278 25.7 135.278 26.18C135.291 26.74 135.291 27.2933 135.278 27.84C135.278 28.3733 135.264 28.9067 135.238 29.44C135.211 29.9733 135.171 30.5133 135.118 31.06C135.091 31.2067 135.051 31.32 134.998 31.4C134.944 31.4667 134.838 31.54 134.678 31.62C134.491 31.7133 134.244 31.7933 133.938 31.86C133.631 31.9133 133.298 31.96 132.938 32C132.591 32.0533 132.264 32.0867 131.958 32.1C131.651 32.1267 131.398 32.14 131.198 32.14ZM131.358 30.6C131.464 30.6 131.584 30.5933 131.718 30.58C131.851 30.5667 131.984 30.54 132.118 30.5C132.251 30.4467 132.358 30.3867 132.438 30.32C132.531 30.2533 132.584 30.1667 132.598 30.06C132.638 29.74 132.671 29.3867 132.698 29C132.724 28.6133 132.724 28.24 132.698 27.88C132.698 27.7067 132.631 27.5867 132.498 27.52C132.364 27.4267 132.171 27.3733 131.918 27.36C131.678 27.3333 131.478 27.32 131.318 27.32C131.198 27.32 131.044 27.3467 130.858 27.4C130.684 27.44 130.518 27.52 130.358 27.64C130.198 27.76 130.064 27.94 129.958 28.18C129.864 28.42 129.818 28.7267 129.818 29.1C129.818 29.3933 129.878 29.6533 129.998 29.88C130.118 30.1067 130.291 30.2867 130.518 30.42C130.744 30.54 131.024 30.6 131.358 30.6Z" fill="white" fill-opacity="0.85"/>
<circle cx="25.1035" cy="25.1035" r="25.1035" fill="url(#paint0_linear_41_76)"/>
<path fill-rule="evenodd" clip-rule="evenodd" d="M25.0935 50.207C38.9578 50.207 50.197 38.9678 50.197 25.1035C50.197 11.2392 38.9578 0 25.0935 0C22.0773 0 19.1854 0.531931 16.5063 1.5071C26.6682 4.71961 34.0345 14.2233 34.0345 25.4474C34.0345 36.2955 27.1535 45.5365 17.5181 49.0438C19.9083 49.7995 22.4533 50.207 25.0935 50.207Z" fill="black" fill-opacity="0.25"/>
<ellipse cx="27.1668" cy="20.9769" rx="3.78272" ry="3.43884" fill="black" fill-opacity="0.28"/>
<ellipse cx="20.4612" cy="7.90934" rx="1.20359" ry="1.03165" fill="black" fill-opacity="0.28"/>
<ellipse cx="17.7099" cy="11.6921" rx="1.20359" ry="1.03165" fill="black" fill-opacity="0.28"/>
<ellipse cx="22.8681" cy="12.7237" rx="1.20359" ry="1.03165" fill="black" fill-opacity="0.28"/>
<ellipse cx="24.2437" cy="8.5971" rx="0.859709" ry="0.687767" fill="black" fill-opacity="0.28"/>
<ellipse cx="27.1606" cy="4.41413" rx="1.19681" ry="0.685596" transform="rotate(15.1951 27.1606 4.41413)" fill="black" fill-opacity="0.28"/>
<ellipse cx="45.0489" cy="20.633" rx="2.0633" ry="3.43884" fill="black" fill-opacity="0.28"/>
<ellipse cx="39.9877" cy="12.3019" rx="0.783724" ry="1.30621" transform="rotate(-28.7267 39.9877 12.3019)" fill="black" fill-opacity="0.28"/>
<ellipse cx="33.1415" cy="41.9328" rx="3.43884" ry="2.23524" transform="rotate(-15.5202 33.1415 41.9328)" fill="black" fill-opacity="0.28"/>
<ellipse cx="39.6303" cy="34.3161" rx="1.66464" ry="1.08201" transform="rotate(-15.5202 39.6303 34.3161)" fill="black" fill-opacity="0.28"/>
<defs>
<linearGradient id="paint0_linear_41_76" x1="14.4431" y1="14.9589" x2="40.4063" y2="40.9222" gradientUnits="userSpaceOnUse">
<stop stop-color="#2FFFFF" stop-opacity="0.8"/>
<stop offset="1" stop-color="#2FA8FF" stop-opacity="0.8"/>
</linearGradient>
</defs>
</svg>
