<svg width="232" height="326" viewBox="0 0 232 326" fill="none" xmlns="http://www.w3.org/2000/svg">
<circle cx="116" cy="210" r="116" fill="url(#paint0_linear_43_110)"/>
<circle cx="116" cy="210" r="106" stroke="black" stroke-opacity="0.1" stroke-width="20"/>
<circle cx="116" cy="210" r="93.4836" stroke="black" stroke-opacity="0.26" stroke-width="7"/>
<path d="M135.999 121.858C135.999 121.858 146.985 124.733 153.557 127.754C160.114 130.769 169.429 137.218 169.429 137.218L67.0957 285.923C67.0957 285.923 56.0162 278.202 50.426 272.391C44.7583 266.5 38.3522 256.114 38.3522 256.114L135.999 121.858Z" fill="white" fill-opacity="0.23"/>
<path d="M180.302 147.071C180.302 147.071 187.645 154.774 192.475 162.576C198.07 171.615 201.382 181.546 201.382 181.546L120.872 300.2C120.872 300.2 110.476 300.756 100.566 299.062C91.2787 297.475 82.8796 293.967 82.8796 293.967L180.302 147.071Z" fill="white" fill-opacity="0.23"/>
<path d="M29 13.9843L76.2484 0.999995L100.995 91.052C100.995 91.052 86.4913 93.2285 77.6075 96.1332C68.3193 99.1701 54.7875 106.399 54.7875 106.399L29 13.9843Z" fill="#4E97B6"/>
<path d="M190.437 10.5089L142.577 -6.22869e-06L122.548 91.2174C122.548 91.2174 137.146 92.6364 146.168 95.0751C155.602 97.6248 169.492 104.14 169.492 104.14L190.437 10.5089Z" fill="#4E97B6"/>
<defs>
<linearGradient id="paint0_linear_43_110" x1="44.2131" y1="141.066" x2="137.869" y2="313.164" gradientUnits="userSpaceOnUse">
<stop stop-color="#FFC656"/>
<stop offset="1" stop-color="#DD991D"/>
</linearGradient>
</defs>
</svg>
