<svg width="147" height="146" viewBox="0 0 147 146" fill="none" xmlns="http://www.w3.org/2000/svg">
<circle cx="73" cy="73" r="73" fill="#43BDBD"/>
<path fill-rule="evenodd" clip-rule="evenodd" d="M72.971 146C113.288 146 145.971 113.317 145.971 73C145.971 32.6832 113.288 0 72.971 0C64.2001 0 55.7905 1.54684 48 4.38259C77.5503 13.7244 98.971 41.3607 98.971 74C98.971 105.546 78.9615 132.418 50.9421 142.617C57.8929 144.815 65.2936 146 72.971 146Z" fill="black" fill-opacity="0.3"/>
<path fill-rule="evenodd" clip-rule="evenodd" d="M68.5803 141.58C108.897 141.58 141.58 108.897 141.58 68.5803C141.58 49.4394 134.213 32.0191 122.161 19C136.564 32.3344 145.58 51.4044 145.58 72.5803C145.58 112.897 112.897 145.58 72.5803 145.58C51.4044 145.58 32.3344 136.564 19 122.161C32.0191 134.213 49.4394 141.58 68.5803 141.58Z" fill="black" fill-opacity="0.1"/>
<path d="M110.45 52.9012C121.12 53.5532 135.929 50.8185 142 49.3697C140.888 48.3737 137.28 46.6532 131.74 47.7398C124.814 49.0981 123.019 48.0115 112.502 47.7398C101.985 47.4682 100.959 45.5666 91.7249 44.48C84.3375 43.6107 76.1636 44.1178 73 44.48C80.6952 45.0233 97.1115 52.0863 110.45 52.9012Z" fill="black" fill-opacity="0.1"/>
<path d="M65.4498 22.9012C76.1204 23.5532 90.9294 20.8185 97 19.3697C95.8885 18.3737 92.2803 16.6532 86.7398 17.7398C79.8141 19.0981 78.0186 18.0115 67.5019 17.7398C56.9851 17.4682 55.9591 15.5666 46.7249 14.48C39.3375 13.6107 31.1636 14.1178 28 14.48C35.6952 15.0233 52.1115 22.0863 65.4498 22.9012Z" fill="black" fill-opacity="0.1"/>
<path d="M67.3309 112.89C84.8059 113.615 109.058 110.576 119 108.966C117.18 107.86 111.271 105.948 102.197 107.155C90.855 108.665 87.9145 107.457 70.6915 107.155C53.4684 106.854 51.7881 104.741 36.6654 103.533C24.5673 102.567 11.1809 103.131 6 103.533C18.6022 104.137 45.487 111.985 67.3309 112.89Z" fill="black" fill-opacity="0.1"/>
<path d="M67.4344 60.2451C44.9655 58.6273 13.7828 65.4132 1 69.0084C3.34051 71.4801 10.9381 75.7494 22.6047 73.053C37.1878 69.6825 40.9686 72.3789 63.1134 73.053C85.2582 73.7271 87.4187 78.4458 106.863 81.1422C122.418 83.2993 139.63 82.041 146.291 81.1422C130.088 79.794 95.5204 62.2674 67.4344 60.2451Z" fill="black" fill-opacity="0.1"/>
</svg>
