<svg width="144" height="144" viewBox="0 0 144 144" fill="none" xmlns="http://www.w3.org/2000/svg">
<circle cx="72" cy="72" r="72" fill="url(#paint0_linear_119_18)"/>
<path d="M99.7514 38.6593C101.143 37.3305 102.995 36.5959 104.917 36.6104C106.839 36.625 108.679 37.3877 110.051 38.7375C111.423 40.0873 112.218 41.9186 112.269 43.8451C112.319 45.7716 111.622 47.6426 110.323 49.0632L70.9011 98.5063C70.2232 99.2385 69.4051 99.8261 68.4956 100.234C67.5861 100.642 66.6039 100.862 65.6078 100.88C64.6116 100.899 63.622 100.715 62.6981 100.342C61.7741 99.9679 60.9349 99.411 60.2304 98.7045L34.0873 72.4867C33.3592 71.8064 32.7753 70.986 32.3703 70.0744C31.9652 69.1628 31.7475 68.1788 31.7299 67.181C31.7124 66.1832 31.8954 65.1921 32.2681 64.2667C32.6408 63.3414 33.1955 62.5008 33.8992 61.7952C34.6028 61.0895 35.441 60.5332 36.3637 60.1594C37.2864 59.7857 38.2747 59.6021 39.2697 59.6197C40.2646 59.6373 41.2459 59.8557 42.1549 60.2619C43.0638 60.6681 43.8819 61.2537 44.5603 61.9838L65.2496 82.7222L99.5637 38.8773L99.7514 38.6593Z" fill="white"/>
<defs>
<linearGradient id="paint0_linear_119_18" x1="105.356" y1="21.9661" x2="35.3898" y2="122.034" gradientUnits="userSpaceOnUse">
<stop stop-color="#84F2B0"/>
<stop offset="1" stop-color="#09B34D"/>
</linearGradient>
</defs>
</svg>
