<svg width="161" height="141" viewBox="0 0 161 141" fill="none" xmlns="http://www.w3.org/2000/svg">
<path d="M73.1307 3.98886C76.2014 -1.32962 83.8779 -1.32962 86.9486 3.98886L158.999 128.783C162.069 134.102 158.231 140.75 152.09 140.75H7.98962C1.84837 140.75 -1.98991 134.102 1.08071 128.783L73.1307 3.98886Z" fill="url(#paint0_linear_119_14)"/>
<path d="M74.1758 94.0925C73.5292 94.0925 73.0846 94.0121 72.8421 93.8513C72.6805 93.6906 72.5997 93.1681 72.5997 92.2839L70.6598 40.3164C70.6598 39.7537 70.7406 39.3518 70.9023 39.1106C71.0639 38.8695 71.4277 38.7489 71.9935 38.7489H86.4212C87.3103 38.7489 87.7549 39.2312 87.7549 40.1958L85.6938 92.2839C85.6938 93.0877 85.613 93.6102 85.4513 93.8513C85.2896 94.0121 84.7643 94.0925 83.8752 94.0925H74.1758ZM86.5425 115.434C86.5425 117.524 86.0171 119.132 84.9663 120.257C83.9964 121.382 81.8949 121.945 78.6618 121.945C75.8328 121.945 73.7717 121.382 72.4784 120.257C71.266 119.132 70.6598 117.524 70.6598 115.434C70.6598 113.344 71.266 111.777 72.4784 110.732C73.7717 109.687 75.8328 109.164 78.6618 109.164C81.8949 109.164 83.9964 109.687 84.9663 110.732C86.0171 111.777 86.5425 113.344 86.5425 115.434Z" fill="white"/>
<defs>
<linearGradient id="paint0_linear_119_14" x1="92.8834" y1="34.1902" x2="21.6538" y2="132.772" gradientUnits="userSpaceOnUse">
<stop stop-color="#FACC74"/>
<stop offset="1" stop-color="#E79C09"/>
</linearGradient>
</defs>
</svg>
