<svg width="146" height="146" viewBox="0 0 146 146" fill="none" xmlns="http://www.w3.org/2000/svg">
<circle cx="73" cy="73" r="73" fill="#4E8DEC"/>
<path fill-rule="evenodd" clip-rule="evenodd" d="M72.971 146C113.288 146 145.971 113.317 145.971 73C145.971 32.6832 113.288 0 72.971 0C64.2001 0 55.7905 1.54684 48 4.38259C77.5503 13.7244 98.971 41.3607 98.971 74C98.971 105.546 78.9615 132.418 50.9421 142.617C57.8929 144.815 65.2936 146 72.971 146Z" fill="black" fill-opacity="0.37"/>
<path d="M61.5688 107.89C65.4349 108.615 70.8005 105.576 73 103.966C72.5973 102.86 71.29 100.948 69.2825 102.155C66.7732 103.665 66.1227 102.457 62.3123 102.155C58.5019 101.854 58.1301 99.7407 54.7844 98.5333C52.1078 97.5674 49.1462 98.1309 48 98.5333C50.7881 99.137 56.7361 106.985 61.5688 107.89Z" fill="#2FFF82" fill-opacity="0.8"/>
<path d="M77.5688 130.89C81.4349 131.615 86.8005 128.576 89 126.966C88.5973 125.86 87.29 123.948 85.2825 125.155C82.7732 126.665 82.1227 125.457 78.3123 125.155C74.5019 124.854 74.1301 122.741 70.7844 121.533C68.1078 120.567 65.1462 121.131 64 121.533C66.7881 122.137 72.7361 129.985 77.5688 130.89Z" fill="#2FFF82" fill-opacity="0.8"/>
<path d="M126.569 72.8902C130.435 73.6147 135.8 70.5762 138 68.9664C137.597 67.8596 136.29 65.948 134.283 67.1553C131.773 68.6645 131.123 67.4572 127.312 67.1553C123.502 66.8535 123.13 64.7407 119.784 63.5333C117.108 62.5674 114.146 63.1309 113 63.5333C115.788 64.137 121.736 71.9847 126.569 72.8902Z" fill="#2FFF82" fill-opacity="0.8"/>
<path d="M52.0104 26.0233L36.0312 32.8023L31.1146 38.3488L24.9688 32.8023L17.5938 38.3488L34.1875 47.593L36.0312 56.2209L22.5104 63H7.14583L1 75.3256L2.84375 81.4884L17.5938 94.4302C21.8958 95.4574 31.2375 97.5116 34.1875 97.5116C37.1375 97.5116 44.0208 86.8295 47.0938 81.4884L58.7708 75.3256L72.2917 81.4884L77.2083 97.5116L86.4271 116H106.708L115.312 107.988C114.698 102.647 113.1 91.3488 111.625 88.8837C110.15 86.4186 107.733 75.531 106.708 70.3953L119 53.1395L113.469 38.3488L98.7188 26.0233L74.75 10L52.0104 26.0233Z" fill="#2FFF82" fill-opacity="0.8"/>
<path fill-rule="evenodd" clip-rule="evenodd" d="M68.5803 141.58C108.897 141.58 141.58 108.897 141.58 68.5803C141.58 49.4394 134.213 32.0191 122.161 19C136.564 32.3344 145.58 51.4044 145.58 72.5803C145.58 112.897 112.897 145.58 72.5803 145.58C51.4044 145.58 32.3344 136.564 19 122.161C32.0191 134.213 49.4394 141.58 68.5803 141.58Z" fill="black" fill-opacity="0.1"/>
</svg>
